<?xml version="1.0" encoding="utf-8"?>
<svg version="1.1" xmlns:xlink="http://www.w3.org/1999/xlink" width="170px" height="170px" xmlns="http://www.w3.org/2000/svg">
  <g transform="matrix(1 0 0 1 -1950 -4685 )">
    <path d="M 2035 4686  C 2082.04 4686  2119 4722.96  2119 4770  C 2119 4817.04  2082.04 4854  2035 4854  C 1987.96 4854  1951 4817.04  1951 4770  C 1951 4722.96  1987.96 4686  2035 4686  Z " fill-rule="nonzero" fill="#f2f2f2" stroke="none" />
    <path d="M 2035 4686  C 2082.04 4686  2119 4722.96  2119 4770  C 2119 4817.04  2082.04 4854  2035 4854  C 1987.96 4854  1951 4817.04  1951 4770  C 1951 4722.96  1987.96 4686  2035 4686  Z " stroke-width="2" stroke="#999999" fill="none" />
  </g>
</svg>