<?xml version="1.0" encoding="utf-8"?>
<svg version="1.1" xmlns:xlink="http://www.w3.org/1999/xlink" width="26px" height="26px" xmlns="http://www.w3.org/2000/svg">
  <g transform="matrix(1 0 0 1 -1281 -5621 )">
    <path d="M 19.5 12.0690104166667  C 19.8611111111111 12.2721354166667  20.0416666666667 12.5824652777778  20.0416666666667 13  C 20.0416666666667 13.4175347222222  19.8611111111111 13.7278645833333  19.5 13.9309895833333  L 10.2916666666667 19.34765625  C 10.1223958333333 19.44921875  9.94184027777778 19.5  9.75 19.5  C 9.56944444444444 19.5  9.38888888888889 19.4548611111111  9.20833333333333 19.3645833333333  C 8.84722222222222 19.1501736111111  8.66666666666667 18.8342013888889  9 18.4166666666667  L 9 7.58333333333333  C 8.66666666666667 7.16579861111111  8.84722222222222 6.84982638888889  9.20833333333333 6.63541666666667  C 9.58072916666667 6.43229166666667  9.94184027777778 6.43793402777778  10.2916666666667 6.65234375  L 19.5 12.0690104166667  Z M 20.97265625 17.62109375  C 21.7964409722222 16.2105034722222  22.2083333333333 14.6701388888889  22.2083333333333 13  C 22.2083333333333 11.3298611111111  21.7964409722222 9.78949652777778  20.97265625 8.37890625  C 20.1488715277778 6.96831597222222  19.0316840277778 5.85112847222222  17.62109375 5.02734375  C 16.2105034722222 4.20355902777778  14.6701388888889 3.79166666666667  13 3.79166666666667  C 11.3298611111111 3.79166666666667  9.78949652777778 4.20355902777778  8.37890625 5.02734375  C 6.96831597222222 5.85112847222222  5.85112847222222 6.96831597222222  5.02734375 8.37890625  C 4.20355902777778 9.78949652777778  3.79166666666667 11.3298611111111  3.79166666666667 13  C 3.79166666666667 14.6701388888889  4.20355902777778 16.2105034722222  5.02734375 17.62109375  C 5.85112847222222 19.0316840277778  6.96831597222222 20.1488715277778  8.37890625 20.97265625  C 9.78949652777778 21.7964409722222  11.3298611111111 22.2083333333333  13 22.2083333333333  C 14.6701388888889 22.2083333333333  16.2105034722222 21.7964409722222  17.62109375 20.97265625  C 19.0316840277778 20.1488715277778  20.1488715277778 19.0316840277778  20.97265625 17.62109375  Z M 24.2565104166667 6.474609375  C 25.4188368055556 8.46636284722222  26 10.6414930555556  26 13  C 26 15.3585069444444  25.4188368055556 17.5336371527778  24.2565104166667 19.525390625  C 23.0941840277778 21.5171440972222  21.5171440972222 23.0941840277778  19.525390625 24.2565104166667  C 17.5336371527778 25.4188368055556  15.3585069444444 26  13 26  C 10.6414930555556 26  8.46636284722222 25.4188368055556  6.474609375 24.2565104166667  C 4.48285590277778 23.0941840277778  2.90581597222222 21.5171440972222  1.74348958333333 19.525390625  C 0.581163194444444 17.5336371527778  0 15.3585069444444  0 13  C 0 10.6414930555556  0.581163194444444 8.46636284722222  1.74348958333333 6.474609375  C 2.90581597222222 4.48285590277778  4.48285590277778 2.90581597222222  6.474609375 1.74348958333333  C 8.46636284722222 0.581163194444442  10.6414930555556 0  13 0  C 15.3585069444444 0  17.5336371527778 0.581163194444442  19.525390625 1.74348958333333  C 21.5171440972222 2.90581597222222  23.0941840277778 4.48285590277778  24.2565104166667 6.474609375  Z " fill-rule="nonzero" fill="#00d7d7" stroke="none" transform="matrix(1 0 0 1 1281 5621 )" />
  </g>
</svg>