<?xml version="1.0" encoding="utf-8"?>
<svg version="1.1" xmlns:xlink="http://www.w3.org/1999/xlink" width="49px" height="16px" xmlns="http://www.w3.org/2000/svg">
  <g transform="matrix(1 0 0 1 -1116 -5672 )">
    <path d="M 1116 5672  L 1165 5672  L 1165 5688  L 1116 5688  L 1116 5672  " fill-rule="nonzero" fill="#cccccc" stroke="none" />
    <path d="M 1117 5673  L 1164 5673  L 1164 5687  L 1117 5687  L 1117 5673  " fill-rule="nonzero" fill="#ffffff" stroke="none" />
    <path d="M 1142.68 5676.8  C 1142.008 5676.8  1141.48 5676.272  1141.48 5675.6  C 1141.48 5674.928  1142.008 5674.4  1142.68 5674.4  C 1143.352 5674.4  1143.88 5674.928  1143.88 5675.6  C 1143.88 5676.272  1143.352 5676.8  1142.68 5676.8  " fill-rule="nonzero" fill="#cccccc" stroke="none" />
    <path d="M 1118 5687  L 1118 5679.85  L 1129.5 5676.6  L 1145.6 5684.45306122449  L 1154.8 5678.55  L 1164 5684.45306122449  L 1164 5687  L 1118 5687  " fill-rule="nonzero" fill="#169bd5" stroke="none" />
  </g>
</svg>