<?xml version="1.0" encoding="utf-8"?>
<svg version="1.1" xmlns:xlink="http://www.w3.org/1999/xlink" width="19px" height="19px" xmlns="http://www.w3.org/2000/svg">
  <g transform="matrix(1 0 0 1 -1418 -6503 )">
    <path d="M 4.7314453125 1.27408854166667  C 6.18695746527778 0.424696180555554  7.77647569444444 0  9.5 0  C 11.2235243055556 0  12.8130425347222 0.424696180555554  14.2685546875 1.27408854166667  C 15.7240668402778 2.12348090277778  16.8765190972222 3.27593315972222  17.7259114583333 4.7314453125  C 18.5753038194444 6.18695746527778  19 7.77647569444444  19 9.5  C 19 11.2235243055556  18.5753038194444 12.8130425347222  17.7259114583333 14.2685546875  C 16.8765190972222 15.7240668402778  15.7240668402778 16.8765190972222  14.2685546875 17.7259114583333  C 12.8130425347222 18.5753038194444  11.2235243055556 19  9.5 19  C 7.77647569444444 19  6.18695746527778 18.5753038194444  4.7314453125 17.7259114583333  C 3.27593315972222 16.8765190972222  2.12348090277778 15.7240668402778  1.27408854166667 14.2685546875  C 0.424696180555555 12.8130425347222  0 11.2235243055556  0 9.5  C 0 7.77647569444444  0.424696180555555 6.18695746527778  1.27408854166667 4.7314453125  C 2.12348090277778 3.27593315972222  3.27593315972222 2.12348090277778  4.7314453125 1.27408854166667  Z M 13.4212239583333 6.29622395833333  C 13.2810329861111 6.25499131944444  13.1037326388889 6.30447048611111  12.8893229166667 6.44466145833333  C 12.8728298611111 6.45290798611111  12.8336588541667 6.49207899305555  12.7718098958333 6.56217447916667  C 12.7099609375 6.63226996527778  12.654296875 6.67144097222222  12.6048177083333 6.6796875  C 12.6213107638889 6.6796875  12.6398654513889 6.65907118055555  12.6604817708333 6.61783854166667  C 12.6810980902778 6.57660590277778  12.7017144097222 6.53125  12.7223307291667 6.48177083333333  C 12.7429470486111 6.43229166666667  12.7573784722222 6.40342881944444  12.765625 6.39518229166667  C 12.8151041666667 6.33745659722222  12.9058159722222 6.27560763888889  13.0377604166667 6.20963541666667  C 13.1532118055556 6.16015625  13.3676215277778 6.11067708333333  13.6809895833333 6.06119791666667  C 13.9613715277778 5.99522569444444  14.1716579861111 6.04058159722222  14.3118489583333 6.197265625  C 14.2953559027778 6.18077256944444  14.3345269097222 6.12717013888889  14.4293619791667 6.03645833333333  C 14.5241970486111 5.94574652777778  14.583984375 5.89626736111111  14.6087239583333 5.88802083333333  C 14.6334635416667 5.87152777777778  14.6953125 5.85297309027778  14.7942708333333 5.83235677083333  C 14.8932291666667 5.81174045138889  14.955078125 5.78081597222222  14.9798177083333 5.73958333333333  L 15.0045572916667 5.46744791666667  C 14.9055989583333 5.47569444444444  14.8334418402778 5.44683159722222  14.7880859375 5.380859375  C 14.7427300347222 5.31488715277778  14.7159288194444 5.22829861111111  14.7076822916667 5.12109375  C 14.7076822916667 5.13758680555555  14.6829427083333 5.17057291666667  14.6334635416667 5.22005208333333  C 14.6334635416667 5.16232638888889  14.6149088541667 5.12934027777778  14.5777994791667 5.12109375  C 14.5406901041667 5.11284722222222  14.4932725694444 5.11697048611111  14.435546875 5.13346354166667  C 14.3778211805556 5.14995659722222  14.3407118055556 5.15407986111111  14.32421875 5.14583333333333  C 14.2417534722222 5.12109375  14.1799045138889 5.09016927083333  14.138671875 5.05305989583333  C 14.0974392361111 5.01595052083333  14.064453125 4.94791666666667  14.0397135416667 4.84895833333333  C 14.0149739583333 4.75  13.9984809027778 4.68815104166667  13.990234375 4.66341145833333  C 13.9737413194444 4.62217881944444  13.9345703125 4.57682291666667  13.8727213541667 4.52734375  C 13.8108723958333 4.47786458333333  13.7717013888889 4.43663194444444  13.7552083333333 4.40364583333333  C 13.7469618055556 4.38715277777778  13.7366536458333 4.36447482638889  13.7242838541667 4.33561197916667  C 13.7119140625 4.30674913194444  13.6995442708333 4.27994791666667  13.6871744791667 4.25520833333333  C 13.6748046875 4.23046875  13.6583116319444 4.20779079861111  13.6376953125 4.18717447916667  C 13.6170789930556 4.16655815972222  13.5944010416667 4.15625  13.5696614583333 4.15625  C 13.544921875 4.15625  13.5160590277778 4.17686631944444  13.4830729166667 4.21809895833333  C 13.4500868055556 4.25933159722222  13.4191623263889 4.30056423611111  13.3902994791667 4.341796875  C 13.3614366319444 4.38302951388889  13.3428819444444 4.40364583333333  13.3346354166667 4.40364583333333  C 13.3098958333333 4.38715277777778  13.28515625 4.38096788194444  13.2604166666667 4.38509114583333  C 13.2356770833333 4.38921440972222  13.2171223958333 4.39333767361111  13.2047526041667 4.3974609375  C 13.1923828125 4.40158420138889  13.173828125 4.41395399305555  13.1490885416667 4.4345703125  C 13.1243489583333 4.45518663194444  13.1037326388889 4.46961805555555  13.0872395833333 4.47786458333333  C 13.0625 4.49435763888889  13.0274522569444 4.50672743055555  12.9820963541667 4.51497395833333  C 12.9367404513889 4.52322048611111  12.9016927083333 4.53146701388889  12.876953125 4.53971354166667  C 13.0006510416667 4.49848090277778  12.9965277777778 4.453125  12.8645833333333 4.40364583333333  C 12.7821180555556 4.37065972222222  12.7161458333333 4.35828993055555  12.6666666666667 4.36653645833333  C 12.7408854166667 4.33355034722222  12.7718098958333 4.28407118055555  12.7594401041667 4.21809895833333  C 12.7470703125 4.15212673611111  12.7120225694444 4.09440104166667  12.654296875 4.044921875  L 12.7161458333333 4.044921875  C 12.7078993055556 4.01193576388889  12.6728515625 3.97688802083333  12.6110026041667 3.93977864583333  C 12.5491536458333 3.90266927083333  12.4769965277778 3.86762152777778  12.39453125 3.83463541666667  C 12.3120659722222 3.80164930555555  12.2584635416667 3.77690972222222  12.2337239583333 3.76041666666667  C 12.1677517361111 3.71918402777778  12.0275607638889 3.68001302083333  11.8131510416667 3.64290364583333  C 11.5987413194444 3.60579427083333  11.4626736111111 3.60373263888889  11.4049479166667 3.63671875  C 11.3637152777778 3.68619791666667  11.3451605902778 3.7294921875  11.3492838541667 3.7666015625  C 11.3534071180556 3.8037109375  11.3699001736111 3.86143663194444  11.3987630208333 3.93977864583333  C 11.4276258680556 4.01812065972222  11.4420572916667 4.06966145833333  11.4420572916667 4.09440104166667  C 11.4503038194444 4.14388020833333  11.4276258680556 4.19748263888889  11.3740234375 4.25520833333333  C 11.3204210069444 4.31293402777778  11.2936197916667 4.36241319444444  11.2936197916667 4.40364583333333  C 11.2936197916667 4.46137152777778  11.3513454861111 4.52528211805555  11.466796875 4.59537760416667  C 11.5822482638889 4.66547309027778  11.6234809027778 4.75412326388889  11.5904947916667 4.861328125  C 11.5657552083333 4.92730034722222  11.4997829861111 4.99327256944444  11.392578125 5.05924479166667  C 11.2853732638889 5.12521701388889  11.2194010416667 5.17469618055555  11.1946614583333 5.20768229166667  C 11.1534288194444 5.27365451388889  11.1472439236111 5.34993489583333  11.1761067708333 5.4365234375  C 11.2049696180556 5.52311197916667  11.2482638888889 5.59114583333333  11.3059895833333 5.640625  C 11.3224826388889 5.65711805555555  11.3286675347222 5.67361111111111  11.3245442708333 5.69010416666667  C 11.3204210069444 5.70659722222222  11.3059895833333 5.72515190972222  11.28125 5.74576822916667  C 11.2565104166667 5.76638454861111  11.2338324652778 5.78287760416667  11.2132161458333 5.79524739583333  C 11.1925998263889 5.8076171875  11.1657986111111 5.82204861111111  11.1328125 5.83854166666667  L 11.095703125 5.86328125  C 11.0049913194444 5.90451388888889  10.9204644097222 5.87977430555555  10.8421223958333 5.7890625  C 10.7637803819444 5.69835069444444  10.7081163194444 5.59114583333333  10.6751302083333 5.46744791666667  C 10.6174045138889 5.26128472222222  10.5514322916667 5.13758680555555  10.4772135416667 5.09635416666667  C 10.2875434027778 5.03038194444444  10.16796875 5.03450520833333  10.1184895833333 5.10872395833333  C 10.0772569444444 5.00151909722222  9.908203125 4.89431423611111  9.611328125 4.787109375  C 9.40516493055556 4.712890625  9.166015625 4.69639756944444  8.89388020833333 4.73763020833333  C 8.943359375 4.72938368055555  8.943359375 4.66753472222222  8.89388020833333 4.55208333333333  C 8.83615451388889 4.42838541666667  8.7578125 4.37890625  8.65885416666667 4.40364583333333  C 8.68359375 4.35416666666667  8.70008680555556 4.28200954861111  8.70833333333333 4.18717447916667  C 8.71657986111111 4.09233940972222  8.720703125 4.03667534722222  8.720703125 4.02018229166667  C 8.74544270833333 3.91297743055555  8.794921875 3.81814236111111  8.869140625 3.73567708333333  C 8.87738715277778 3.72743055555555  8.90625 3.6923828125  8.95572916666667 3.63053385416667  C 9.00520833333333 3.56868489583333  9.04437934027778 3.51302083333333  9.0732421875 3.46354166666667  C 9.10210503472222 3.4140625  9.10416666666667 3.38932291666667  9.07942708333333 3.38932291666667  C 9.36805555555556 3.42230902777778  9.57421875 3.376953125  9.69791666666667 3.25325520833333  C 9.73914930555556 3.21202256944444  9.78656684027778 3.14192708333333  9.84016927083333 3.04296875  C 9.89377170138889 2.94401041666667  9.93706597222222 2.87391493055555  9.97005208333333 2.83268229166667  C 10.0442708333333 2.783203125  10.1019965277778 2.76052517361111  10.1432291666667 2.7646484375  C 10.1844618055556 2.76877170138889  10.2442491319444 2.79144965277778  10.3225911458333 2.83268229166667  C 10.4009331597222 2.87391493055555  10.4607204861111 2.89453125  10.501953125 2.89453125  C 10.6174045138889 2.90277777777778  10.6813151041667 2.857421875  10.6936848958333 2.75846354166667  C 10.7060546875 2.65950520833333  10.6751302083333 2.57703993055555  10.6009114583333 2.51106770833333  C 10.6998697916667 2.51931423611111  10.7122395833333 2.44921875  10.6380208333333 2.30078125  C 10.6050347222222 2.24305555555555  10.5720486111111 2.20594618055555  10.5390625 2.189453125  C 10.4401041666667 2.15646701388889  10.3287760416667 2.17708333333333  10.205078125 2.25130208333333  C 10.1391059027778 2.28428819444444  10.1473524305556 2.31727430555555  10.2298177083333 2.35026041666667  C 10.2215711805556 2.34201388888889  10.1824001736111 2.38530815972222  10.1123046875 2.48014322916667  C 10.0422092013889 2.57497829861111  9.97417534722222 2.64713541666667  9.908203125 2.69661458333333  C 9.84223090277778 2.74609375  9.77625868055556 2.72547743055555  9.71028645833333 2.634765625  C 9.70203993055556 2.62651909722222  9.67936197916667 2.57085503472222  9.64225260416667 2.4677734375  C 9.60514322916667 2.36469184027778  9.56597222222222 2.30902777777778  9.52473958333333 2.30078125  C 9.45876736111111 2.30078125  9.39279513888889 2.36263020833333  9.32682291666667 2.486328125  C 9.3515625 2.42035590277778  9.30620659722222 2.35850694444444  9.19075520833333 2.30078125  C 9.07530381944444 2.24305555555555  8.97634548611111 2.21006944444444  8.89388020833333 2.20182291666667  C 9.05056423611111 2.10286458333333  9.017578125 1.99153645833333  8.794921875 1.86783854166667  C 8.73719618055556 1.83485243055555  8.65266927083333 1.81423611111111  8.54134114583333 1.80598958333333  C 8.43001302083333 1.79774305555555  8.349609375 1.81423611111111  8.30013020833333 1.85546875  C 8.25889756944444 1.91319444444444  8.23621961805556 1.96061197916667  8.23209635416667 1.99772135416667  C 8.22797309027778 2.03483072916667  8.24858940972222 2.06781684027778  8.2939453125 2.0966796875  C 8.33930121527778 2.12554253472222  8.38259548611111 2.14822048611111  8.423828125 2.16471354166667  C 8.46506076388889 2.18120659722222  8.51247829861111 2.19769965277778  8.56608072916667 2.21419270833333  C 8.61968315972222 2.23068576388889  8.65473090277778 2.24305555555555  8.67122395833333 2.25130208333333  C 8.78667534722222 2.33376736111111  8.81966145833333 2.39149305555555  8.77018229166667 2.42447916666667  C 8.75368923611111 2.43272569444444  8.71864149305556 2.44715711805555  8.6650390625 2.4677734375  C 8.61143663194444 2.48838975694444  8.56401909722222 2.50694444444444  8.52278645833333 2.5234375  C 8.48155381944444 2.53993055555555  8.45681423611111 2.55642361111111  8.44856770833333 2.57291666666667  C 8.423828125 2.60590277777778  8.423828125 2.66362847222222  8.44856770833333 2.74609375  C 8.47330729166667 2.82855902777778  8.46506076388889 2.88628472222222  8.423828125 2.91927083333333  C 8.38259548611111 2.87803819444444  8.34548611111111 2.80588107638889  8.3125 2.70279947916667  C 8.27951388888889 2.59971788194444  8.25065104166667 2.53168402777778  8.22591145833333 2.49869791666667  C 8.28363715277778 2.57291666666667  8.18055555555556 2.59765625  7.91666666666667 2.57291666666667  L 7.79296875 2.560546875  C 7.75998263888889 2.560546875  7.69401041666667 2.56879340277778  7.59505208333333 2.58528645833333  C 7.49609375 2.60177951388889  7.41156684027778 2.60590277777778  7.34147135416667 2.59765625  C 7.27137586805556 2.58940972222222  7.21571180555556 2.55642361111111  7.17447916666667 2.49869791666667  C 7.14149305555556 2.43272569444444  7.14149305555556 2.35026041666667  7.17447916666667 2.25130208333333  C 7.18272569444444 2.21831597222222  7.19921875 2.21006944444444  7.22395833333333 2.2265625  C 7.19097222222222 2.20182291666667  7.14561631944444 2.16265190972222  7.087890625 2.10904947916667  C 7.03016493055556 2.05544704861111  6.98893229166667 2.02039930555555  6.96419270833333 2.00390625  C 6.58485243055556 2.12760416666667  6.197265625 2.29665798611111  5.80143229166667 2.51106770833333  C 5.85091145833333 2.51931423611111  5.900390625 2.51519097222222  5.94986979166667 2.49869791666667  C 5.99110243055556 2.48220486111111  6.04470486111111 2.45540364583333  6.11067708333333 2.41829427083333  C 6.17664930555556 2.38118489583333  6.21788194444444 2.35850694444444  6.234375 2.35026041666667  C 6.51475694444444 2.23480902777778  6.68793402777778 2.20594618055555  6.75390625 2.263671875  L 6.81575520833333 2.20182291666667  C 6.93120659722222 2.33376736111111  7.013671875 2.43684895833333  7.06315104166667 2.51106770833333  C 7.00542534722222 2.47808159722222  6.88172743055556 2.47395833333333  6.69205729166667 2.49869791666667  C 6.52712673611111 2.54817708333333  6.43641493055556 2.59765625  6.419921875 2.64713541666667  C 6.47764756944444 2.74609375  6.49826388888889 2.8203125  6.48177083333333 2.86979166666667  C 6.44878472222222 2.84505208333333  6.4013671875 2.80381944444444  6.33951822916667 2.74609375  C 6.27766927083333 2.68836805555555  6.21788194444444 2.64301215277778  6.16015625 2.61002604166667  C 6.10243055555556 2.57703993055555  6.04058159722222 2.55642361111111  5.974609375 2.54817708333333  C 5.84266493055556 2.54817708333333  5.751953125 2.55230034722222  5.70247395833333 2.560546875  C 4.49848090277778 3.22026909722222  3.52951388888889 4.13563368055555  2.79557291666667 5.306640625  C 2.85329861111111 5.36436631944444  2.90277777777778 5.39735243055555  2.94401041666667 5.40559895833333  C 2.97699652777778 5.41384548611111  2.99761284722222 5.45095486111111  3.005859375 5.51692708333333  C 3.01410590277778 5.58289930555555  3.0244140625 5.62825520833333  3.03678385416667 5.65299479166667  C 3.04915364583333 5.677734375  3.09657118055556 5.66536458333333  3.17903645833333 5.61588541666667  C 3.25325520833333 5.68185763888889  3.265625 5.76019965277778  3.21614583333333 5.85091145833333  C 3.22439236111111 5.84266493055555  3.40581597222222 5.95399305555555  3.76041666666667 6.18489583333333  C 3.91710069444444 6.32508680555555  4.00368923611111 6.41167534722222  4.02018229166667 6.44466145833333  C 4.044921875 6.53537326388889  4.00368923611111 6.60959201388889  3.896484375 6.66731770833333  C 3.88823784722222 6.65082465277778  3.85112847222222 6.61371527777778  3.78515625 6.55598958333333  C 3.71918402777778 6.49826388888889  3.68207465277778 6.48177083333333  3.673828125 6.50651041666667  C 3.64908854166667 6.54774305555555  3.65115017361111 6.6240234375  3.68001302083333 6.7353515625  C 3.70887586805556 6.8466796875  3.75217013888889 6.89822048611111  3.80989583333333 6.88997395833333  C 3.75217013888889 6.88997395833333  3.71299913194444 6.95594618055555  3.6923828125 7.087890625  C 3.67176649305556 7.21983506944444  3.66145833333333 7.3662109375  3.66145833333333 7.52701822916667  C 3.66145833333333 7.68782552083333  3.65733506944444 7.78472222222222  3.64908854166667 7.81770833333333  L 3.673828125 7.830078125  C 3.64908854166667 7.92903645833333  3.67176649305556 8.0712890625  3.74186197916667 8.2568359375  C 3.81195746527778 8.4423828125  3.90060763888889 8.52278645833333  4.0078125 8.498046875  C 3.90060763888889 8.52278645833333  3.98307291666667 8.70008680555555  4.25520833333333 9.02994791666667  C 4.3046875 9.09592013888889  4.33767361111111 9.13302951388889  4.35416666666667 9.14127604166667  C 4.37890625 9.15776909722222  4.42838541666667 9.18869357638889  4.50260416666667 9.23404947916667  C 4.57682291666667 9.27940538194444  4.638671875 9.32063802083333  4.68815104166667 9.35774739583333  C 4.73763020833333 9.39485677083333  4.77886284722222 9.43815104166667  4.81184895833333 9.48763020833333  C 4.84483506944444 9.52886284722222  4.88606770833333 9.62163628472222  4.935546875 9.76595052083333  C 4.98502604166667 9.91026475694444  5.04275173611111 10.0071614583333  5.10872395833333 10.056640625  C 5.09223090277778 10.1061197916667  5.13140190972222 10.1885850694444  5.22623697916667 10.3040364583333  C 5.32107204861111 10.4194878472222  5.36436631944444 10.5143229166667  5.35611979166667 10.5885416666667  C 5.34787326388889 10.5885416666667  5.33756510416667 10.5926649305556  5.3251953125 10.6009114583333  C 5.31282552083333 10.6091579861111  5.30251736111111 10.61328125  5.29427083333333 10.61328125  C 5.31901041666667 10.6710069444444  5.38292100694444 10.7287326388889  5.48600260416667 10.7864583333333  C 5.58908420138889 10.8441840277778  5.65299479166667 10.8977864583333  5.677734375 10.947265625  C 5.68598090277778 10.9720052083333  5.69422743055556 11.0132378472222  5.70247395833333 11.0709635416667  C 5.71072048611111 11.1286892361111  5.72309027777778 11.1740451388889  5.73958333333333 11.20703125  C 5.75607638888889 11.2400173611111  5.7890625 11.2482638888889  5.83854166666667 11.2317708333333  C 5.85503472222222 11.0668402777778  5.75607638888889 10.8111979166667  5.54166666666667 10.46484375  C 5.41796875 10.2586805555556  5.34787326388889 10.1391059027778  5.33138020833333 10.1061197916667  C 5.306640625 10.0648871527778  5.28396267361111 10.0009765625  5.26334635416667 9.91438802083333  C 5.24273003472222 9.82779947916667  5.22417534722222 9.76801215277778  5.20768229166667 9.73502604166667  C 5.22417534722222 9.73502604166667  5.24891493055556 9.7412109375  5.28190104166667 9.75358072916667  C 5.31488715277778 9.76595052083333  5.34993489583333 9.78038194444444  5.38704427083333 9.796875  C 5.42415364583333 9.81336805555556  5.455078125 9.82986111111111  5.47981770833333 9.84635416666667  C 5.50455729166667 9.86284722222222  5.51280381944444 9.87521701388889  5.50455729166667 9.88346354166667  C 5.47981770833333 9.94118923611111  5.48806423611111 10.0133463541667  5.529296875 10.0999348958333  C 5.57052951388889 10.1865234375  5.62000868055556 10.2628038194444  5.677734375 10.3287760416667  C 5.73546006944444 10.3947482638889  5.80555555555556 10.4730902777778  5.88802083333333 10.5638020833333  C 5.97048611111111 10.6545138888889  6.01996527777778 10.7081163194444  6.03645833333333 10.724609375  C 6.0859375 10.7740885416667  6.14366319444444 10.8544921875  6.20963541666667 10.9658203125  C 6.27560763888889 11.0771484375  6.27560763888889 11.1328125  6.20963541666667 11.1328125  C 6.28385416666667 11.1328125  6.36631944444444 11.1761067708333  6.45703125 11.2626953125  C 6.54774305555556 11.3492838541667  6.61783854166667 11.4296875  6.66731770833333 11.50390625  C 6.70855034722222 11.5698784722222  6.74153645833333 11.6770833333333  6.76627604166667 11.8255208333333  C 6.791015625 11.9739583333333  6.81163194444444 12.0729166666667  6.828125 12.1223958333333  C 6.84461805555556 12.1801215277778  6.87966579861111 12.2357855902778  6.93326822916667 12.2893880208333  C 6.98687065972222 12.3429904513889  7.03841145833333 12.3821614583333  7.087890625 12.4069010416667  L 7.28580729166667 12.505859375  C 7.28580729166667 12.505859375  7.33940972222222 12.5347222222222  7.44661458333333 12.5924479166667  C 7.48784722222222 12.6089409722222  7.56412760416667 12.6522352430556  7.67545572916667 12.7223307291667  C 7.78678385416667 12.7924262152778  7.87543402777778 12.83984375  7.94140625 12.8645833333333  C 8.02387152777778 12.8975694444444  8.08984375 12.9140625  8.13932291666667 12.9140625  C 8.18880208333333 12.9140625  8.24858940972222 12.9037543402778  8.31868489583333 12.8831380208333  C 8.38878038194444 12.8625217013889  8.44444444444444 12.8480902777778  8.48567708333333 12.83984375  C 8.609375 12.8233506944444  8.72894965277778 12.8851996527778  8.84440104166667 13.025390625  C 8.95985243055556 13.1655815972222  9.04644097222222 13.2521701388889  9.10416666666667 13.28515625  C 9.40104166666667 13.4418402777778  9.62782118055556 13.4871961805556  9.78450520833333 13.4212239583333  C 9.76801215277778 13.4294704861111  9.77007378472223 13.4603949652778  9.79069010416667 13.5139973958333  C 9.81130642361111 13.5675998263889  9.84429253472222 13.6315104166667  9.8896484375 13.7057291666667  C 9.93500434027778 13.7799479166667  9.97211371527778 13.8397352430556  10.0009765625 13.8850911458333  C 10.0298394097222 13.9304470486111  10.0525173611111 13.9654947916667  10.0690104166667 13.990234375  C 10.1102430555556 14.0397135416667  10.1844618055556 14.1015625  10.2916666666667 14.17578125  C 10.3988715277778 14.25  10.4730902777778 14.3118489583333  10.5143229166667 14.361328125  C 10.5638020833333 14.3283420138889  10.5926649305556 14.2912326388889  10.6009114583333 14.25  C 10.576171875 14.3159722222222  10.6050347222222 14.3984375  10.6875 14.4973958333333  C 10.7699652777778 14.5963541666667  10.8441840277778 14.6375868055556  10.91015625 14.62109375  C 11.0256076388889 14.5963541666667  11.0833333333333 14.4644097222222  11.0833333333333 14.2252604166667  C 10.8276909722222 14.3489583333333  10.6256510416667 14.2747395833333  10.4772135416667 14.0026041666667  C 10.4772135416667 13.9943576388889  10.4669053819444 13.9716796875  10.4462890625 13.9345703125  C 10.4256727430556 13.8974609375  10.4091796875 13.8624131944444  10.3968098958333 13.8294270833333  C 10.3844401041667 13.7964409722222  10.3741319444444 13.7613932291667  10.3658854166667 13.7242838541667  C 10.3576388888889 13.6871744791667  10.3576388888889 13.65625  10.3658854166667 13.6315104166667  C 10.3741319444444 13.6067708333333  10.3947482638889 13.5944010416667  10.427734375 13.5944010416667  C 10.501953125 13.5944010416667  10.5431857638889 13.5799696180556  10.5514322916667 13.5511067708333  C 10.5596788194444 13.5222439236111  10.5514322916667 13.470703125  10.5266927083333 13.396484375  C 10.501953125 13.322265625  10.4854600694444 13.2686631944444  10.4772135416667 13.2356770833333  C 10.4689670138889 13.1697048611111  10.4236111111111 13.0872395833333  10.3411458333333 12.98828125  C 10.2586805555556 12.8893229166667  10.2092013888889 12.8274739583333  10.1927083333333 12.802734375  C 10.1514756944444 12.876953125  10.0855034722222 12.9099392361111  9.99479166666667 12.9016927083333  C 9.90407986111111 12.8934461805556  9.83810763888889 12.8563368055556  9.796875 12.7903645833333  C 9.796875 12.7986111111111  9.79069010416667 12.8212890625  9.7783203125 12.8583984375  C 9.76595052083333 12.8955078125  9.759765625 12.9223090277778  9.759765625 12.9388020833333  C 9.65256076388889 12.9388020833333  9.59071180555556 12.9346788194444  9.57421875 12.9264322916667  C 9.58246527777778 12.9016927083333  9.5927734375 12.8295355902778  9.60514322916667 12.7099609375  C 9.61751302083333 12.5903862847222  9.63194444444445 12.4976128472222  9.6484375 12.431640625  C 9.65668402777778 12.3986545138889  9.67936197916667 12.3491753472222  9.71647135416667 12.283203125  C 9.75358072916667 12.2172309027778  9.78450520833333 12.1574435763889  9.80924479166667 12.1038411458333  C 9.833984375 12.0502387152778  9.85047743055556 11.9986979166667  9.85872395833333 11.94921875  C 9.86697048611111 11.8997395833333  9.84841579861111 11.8605685763889  9.80305989583333 11.8317057291667  C 9.75770399305556 11.8028428819444  9.685546875 11.7925347222222  9.58658854166667 11.80078125  C 9.42990451388889 11.8090277777778  9.32269965277778 11.8914930555556  9.26497395833333 12.0481770833333  C 9.25672743055556 12.0729166666667  9.24435763888889 12.1162109375  9.22786458333333 12.1780598958333  C 9.21137152777778 12.2399088541667  9.19075520833333 12.2873263888889  9.166015625 12.3203125  C 9.14127604166667 12.3532986111111  9.10416666666667 12.3821614583333  9.0546875 12.4069010416667  C 8.99696180555556 12.431640625  8.89800347222222 12.4398871527778  8.7578125 12.431640625  C 8.61762152777778 12.4233940972222  8.51866319444444 12.4027777777778  8.4609375 12.3697916666667  C 8.35373263888889 12.3038194444444  8.26095920138889 12.1842447916667  8.1826171875 12.0110677083333  C 8.10427517361111 11.837890625  8.06510416666667 11.6853298611111  8.06510416666667 11.5533854166667  C 8.06510416666667 11.4709201388889  8.07541232638889 11.3616536458333  8.09602864583333 11.2255859375  C 8.11664496527778 11.0895182291667  8.12901475694444 10.9864366319444  8.13313802083333 10.9163411458333  C 8.13726128472222 10.8462456597222  8.11458333333333 10.7452256944444  8.06510416666667 10.61328125  C 8.08984375 10.5967881944444  8.126953125 10.5576171875  8.17643229166667 10.4957682291667  C 8.22591145833333 10.4339192708333  8.26714409722222 10.390625  8.30013020833333 10.3658854166667  C 8.31662326388889 10.3576388888889  8.33517795138889 10.3514539930556  8.35579427083333 10.3473307291667  C 8.37641059027778 10.3432074652778  8.39496527777778 10.3432074652778  8.41145833333333 10.3473307291667  C 8.42795138888889 10.3514539930556  8.44444444444444 10.3452690972222  8.4609375 10.3287760416667  C 8.47743055555556 10.3122829861111  8.48980034722222 10.2875434027778  8.498046875 10.2545572916667  C 8.48980034722222 10.2463107638889  8.47330729166667 10.2339409722222  8.44856770833333 10.2174479166667  C 8.423828125 10.1927083333333  8.40733506944444 10.1803385416667  8.39908854166667 10.1803385416667  C 8.45681423611111 10.205078125  8.57432725694444 10.1988932291667  8.75162760416667 10.1617838541667  C 8.92892795138889 10.1246744791667  9.04231770833333 10.130859375  9.091796875 10.1803385416667  C 9.21549479166667 10.2710503472222  9.30620659722222 10.2628038194444  9.36393229166667 10.1555989583333  C 9.36393229166667 10.1473524305556  9.35362413194444 10.1081814236111  9.3330078125 10.0380859375  C 9.31239149305556 9.96799045138889  9.31032986111111 9.91232638888889  9.32682291666667 9.87109375  C 9.36805555555556 10.09375  9.48763020833333 10.130859375  9.685546875 9.982421875  C 9.71028645833333 10.0071614583333  9.77419704861111 10.0277777777778  9.87727864583333 10.0442708333333  C 9.98036024305556 10.0607638888889  10.0525173611111 10.0813802083333  10.09375 10.1061197916667  C 10.1184895833333 10.1226128472222  10.1473524305556 10.1452907986111  10.1803385416667 10.1741536458333  C 10.2133246527778 10.2030164930556  10.2360026041667 10.2215711805556  10.2483723958333 10.2298177083333  C 10.2607421875 10.2380642361111  10.2813585069444 10.2360026041667  10.3102213541667 10.2236328125  C 10.3390842013889 10.2112630208333  10.3741319444444 10.1844618055556  10.4153645833333 10.1432291666667  C 10.4978298611111 10.2586805555556  10.5473090277778 10.3576388888889  10.5638020833333 10.4401041666667  C 10.6545138888889 10.7699652777778  10.7328559027778 10.9513888888889  10.798828125 10.984375  C 10.8565538194444 11.0091145833333  10.9019097222222 11.0173611111111  10.9348958333333 11.0091145833333  C 10.9678819444444 11.0008680555556  10.9864366319444 10.9616970486111  10.9905598958333 10.8916015625  C 10.9946831597222 10.8215060763889  10.9946831597222 10.7637803819444  10.9905598958333 10.7184244791667  C 10.9864366319444 10.6730685763889  10.9802517361111 10.6215277777778  10.9720052083333 10.5638020833333  L 10.9596354166667 10.46484375  L 10.9596354166667 10.2421875  L 10.947265625 10.1432291666667  C 10.8235677083333 10.1184895833333  10.7472873263889 10.0690104166667  10.7184244791667 9.99479166666667  C 10.6895616319444 9.92057291666667  10.6957465277778 9.84429253472222  10.7369791666667 9.76595052083333  C 10.7782118055556 9.68760850694444  10.8400607638889 9.611328125  10.9225260416667 9.537109375  C 10.9307725694444 9.52886284722222  10.9637586805556 9.51443142361111  11.021484375 9.49381510416667  C 11.0792100694444 9.47319878472222  11.1431206597222 9.44639756944444  11.2132161458333 9.41341145833333  C 11.2833116319444 9.38042534722222  11.3348524305556 9.34743923611111  11.3678385416667 9.314453125  C 11.541015625 9.15776909722222  11.6028645833333 9.01345486111111  11.5533854166667 8.88151041666667  C 11.6111111111111 8.88151041666667  11.6564670138889 8.84440104166667  11.689453125 8.77018229166667  C 11.6812065972222 8.77018229166667  11.6605902777778 8.7578125  11.6276041666667 8.73307291666667  C 11.5946180555556 8.70833333333333  11.5636935763889 8.68771701388889  11.5348307291667 8.67122395833333  C 11.5059678819444 8.65473090277778  11.4874131944444 8.646484375  11.4791666666667 8.646484375  C 11.5533854166667 8.60525173611111  11.5616319444444 8.53927951388889  11.50390625 8.44856770833333  C 11.5451388888889 8.423828125  11.5760633680556 8.37847222222222  11.5966796875 8.3125  C 11.6172960069444 8.24652777777778  11.6482204861111 8.20529513888889  11.689453125 8.18880208333333  C 11.763671875 8.28776041666667  11.8502604166667 8.29600694444444  11.94921875 8.21354166666667  C 12.0151909722222 8.14756944444444  12.0193142361111 8.08159722222222  11.9615885416667 8.015625  C 12.0028211805556 7.95789930555555  12.0873480902778 7.91460503472222  12.2151692708333 7.8857421875  C 12.3429904513889 7.85687934027778  12.4192708333333 7.81770833333333  12.4440104166667 7.76822916666667  C 12.5017361111111 7.78472222222222  12.5347222222222 7.77647569444444  12.54296875 7.74348958333333  C 12.5512152777778 7.71050347222222  12.5553385416667 7.66102430555555  12.5553385416667 7.59505208333333  C 12.5553385416667 7.52907986111111  12.5677083333333 7.47960069444444  12.5924479166667 7.44661458333333  C 12.6254340277778 7.40538194444444  12.6872829861111 7.36827256944444  12.7779947916667 7.33528645833333  C 12.8687065972222 7.30230034722222  12.9223090277778 7.28168402777778  12.9388020833333 7.2734375  L 13.1490885416667 7.13736979166667  C 13.173828125 7.10438368055555  13.173828125 7.087890625  13.1490885416667 7.087890625  C 13.2975260416667 7.10438368055555  13.4253472222222 7.05902777777778  13.5325520833333 6.95182291666667  C 13.6150173611111 6.86111111111111  13.5902777777778 6.77864583333333  13.4583333333333 6.70442708333333  C 13.4830729166667 6.65494791666667  13.470703125 6.61577690972222  13.4212239583333 6.5869140625  C 13.3717447916667 6.55805121527778  13.3098958333333 6.53537326388889  13.2356770833333 6.51888020833333  C 13.2604166666667 6.51063368055555  13.3078342013889 6.50857204861111  13.3779296875 6.5126953125  C 13.4480251736111 6.51681857638889  13.4913194444444 6.51063368055555  13.5078125 6.494140625  C 13.6315104166667 6.41167534722222  13.6026475694444 6.345703125  13.4212239583333 6.29622395833333  Z M 10.8483072916667 17.0950520833333  C 10.8483072916667 17.14453125  10.8565538194444 17.2105034722222  10.873046875 17.29296875  C 12.5718315972222 16.99609375  14.0190972222222 16.216796875  15.21484375 14.955078125  C 15.1901041666667 14.9303385416667  15.1385633680556 14.9117838541667  15.0602213541667 14.8994140625  C 14.9818793402778 14.8870442708333  14.9303385416667 14.8726128472222  14.9055989583333 14.8561197916667  C 14.7571614583333 14.7983940972222  14.658203125 14.7654079861111  14.6087239583333 14.7571614583333  C 14.6169704861111 14.6994357638889  14.6066623263889 14.6458333333333  14.5777994791667 14.5963541666667  C 14.5489366319444 14.546875  14.5159505208333 14.509765625  14.4788411458333 14.4850260416667  C 14.4417317708333 14.4602864583333  14.3901909722222 14.4273003472222  14.32421875 14.3860677083333  C 14.2582465277778 14.3448350694444  14.212890625 14.3159722222222  14.1881510416667 14.2994791666667  C 14.1716579861111 14.2829861111111  14.1427951388889 14.2582465277778  14.1015625 14.2252604166667  C 14.0603298611111 14.1922743055556  14.0314670138889 14.1695963541667  14.0149739583333 14.1572265625  C 13.9984809027778 14.1448567708333  13.9675564236111 14.1263020833333  13.9222005208333 14.1015625  C 13.8768446180556 14.0768229166667  13.841796875 14.0685763888889  13.8170572916667 14.0768229166667  C 13.7923177083333 14.0850694444444  13.7510850694444 14.0891927083333  13.693359375 14.0891927083333  L 13.65625 14.1015625  C 13.6315104166667 14.1098090277778  13.6088324652778 14.1201171875  13.5882161458333 14.1324869791667  C 13.5675998263889 14.1448567708333  13.544921875 14.1572265625  13.5201822916667 14.1695963541667  C 13.4954427083333 14.1819661458333  13.4789496527778 14.1943359375  13.470703125 14.2067057291667  C 13.4624565972222 14.2190755208333  13.4624565972222 14.2293836805556  13.470703125 14.2376302083333  C 13.2975260416667 14.0974392361111  13.1490885416667 14.0067274305556  13.025390625 13.9654947916667  C 12.9841579861111 13.9572482638889  12.9388020833333 13.9345703125  12.8893229166667 13.8974609375  C 12.83984375 13.8603515625  12.7965494791667 13.8314887152778  12.7594401041667 13.8108723958333  C 12.7223307291667 13.7902560763889  12.6810980902778 13.7840711805556  12.6357421875 13.7923177083333  C 12.5903862847222 13.8005642361111  12.54296875 13.8294270833333  12.4934895833333 13.87890625  C 12.4522569444444 13.9201388888889  12.4275173611111 13.9819878472222  12.4192708333333 14.064453125  C 12.4110243055556 14.1469184027778  12.4027777777778 14.2005208333333  12.39453125 14.2252604166667  C 12.3368055555556 14.1840277777778  12.3368055555556 14.1118706597222  12.39453125 14.0087890625  C 12.4522569444444 13.9057074652778  12.4605034722222 13.8294270833333  12.4192708333333 13.7799479166667  C 12.39453125 13.73046875  12.3512369791667 13.7119140625  12.2893880208333 13.7242838541667  C 12.2275390625 13.7366536458333  12.1780598958333 13.7552083333333  12.1409505208333 13.7799479166667  C 12.1038411458333 13.8046875  12.0564236111111 13.8397352430556  11.9986979166667 13.8850911458333  C 11.9409722222222 13.9304470486111  11.9038628472222 13.9572482638889  11.8873697916667 13.9654947916667  C 11.8708767361111 13.9737413194444  11.8358289930556 13.9964192708333  11.7822265625 14.0335286458333  C 11.7286241319444 14.0706380208333  11.6935763888889 14.1015625  11.6770833333333 14.1263020833333  C 11.65234375 14.1592881944444  11.6276041666667 14.2087673611111  11.6028645833333 14.2747395833333  C 11.578125 14.3407118055556  11.5575086805556 14.3860677083333  11.541015625 14.4108072916667  C 11.5245225694444 14.3778211805556  11.4771050347222 14.3510199652778  11.3987630208333 14.3304036458333  C 11.3204210069444 14.3097873263889  11.28125 14.287109375  11.28125 14.2623697916667  C 11.2977430555556 14.3448350694444  11.3142361111111 14.4891493055556  11.3307291666667 14.6953125  C 11.3472222222222 14.9014756944444  11.3678385416667 15.0581597222222  11.392578125 15.1653645833333  C 11.4503038194444 15.4210069444444  11.4008246527778 15.6189236111111  11.244140625 15.7591145833333  C 11.021484375 15.9652777777778  10.9019097222222 16.1302083333333  10.8854166666667 16.25390625  C 10.8524305555556 16.4353298611111  10.9019097222222 16.5425347222222  11.0338541666667 16.5755208333333  C 11.0338541666667 16.6332465277778  11.0008680555556 16.7177734375  10.9348958333333 16.8291015625  C 10.8689236111111 16.9404296875  10.8400607638889 17.0290798611111  10.8483072916667 17.0950520833333  Z " fill-rule="nonzero" fill="#333333" stroke="none" transform="matrix(1 0 0 1 1418 6503 )" />
  </g>
</svg>