<?xml version="1.0" encoding="utf-8"?>
<svg version="1.1" xmlns:xlink="http://www.w3.org/1999/xlink" width="30px" height="30px" xmlns="http://www.w3.org/2000/svg">
  <g transform="matrix(1 0 0 1 -1546 -6278 )">
    <path d="M 1546 6278  L 1576 6278  L 1576 6308  L 1546 6308  L 1546 6278  " fill-rule="nonzero" fill="#cccccc" stroke="none" />
    <path d="M 1548 6280  L 1574 6280  L 1574 6306  L 1548 6306  L 1548 6280  " fill-rule="nonzero" fill="#ffffff" stroke="none" />
    <path d="M 1563.85 6287  C 1562.59 6287  1561.6 6286.01  1561.6 6284.75  C 1561.6 6283.49  1562.59 6282.5  1563.85 6282.5  C 1565.11 6282.5  1566.1 6283.49  1566.1 6284.75  C 1566.1 6286.01  1565.11 6287  1563.85 6287  " fill-rule="nonzero" fill="#cccccc" stroke="none" />
    <path d="M 1549 6305  L 1549 6291.8  L 1555 6285.8  L 1563.4 6290.6  L 1568.2 6289.4  L 1573 6290.6  L 1573 6305  L 1549 6305  " fill-rule="nonzero" fill="#169bd5" stroke="none" />
  </g>
</svg>