<?xml version="1.0" encoding="utf-8"?>
<svg version="1.1" xmlns:xlink="http://www.w3.org/1999/xlink" width="11px" height="14px" xmlns="http://www.w3.org/2000/svg">
  <g transform="matrix(1 0 0 1 -458 -7390 )">
    <path d="M 10 12.6768010575017  L 10 1.18440185062789  L 1.1 1.18440185062789  L 1.1 12.6768010575017  L 4.73515625 8.92002643754131  L 5.5 8.13350958360872  L 6.26484375 8.92002643754131  L 10 12.6768010575017  Z M 0.996875 0  L 10.003125 0  C 10.1348958333333 0  10.2609375 0.0277594183740915  10.38125 0.0832782551222744  C 10.5703125 0.163472130425202  10.720703125 0.289931703018285  10.832421875 0.46265697290152  C 10.944140625 0.635382242784754  11 0.826613791584048  11 1.0363516192994  L 11 12.9636483807006  C 11 13.173386208416  10.944140625 13.3646177572152  10.832421875 13.5373430270985  C 10.720703125 13.7100682969817  10.5703125 13.8365278695748  10.38125 13.9167217448777  C 10.2723958333333 13.9660718219872  10.1463541666667 13.990746860542  10.003125 13.990746860542  C 9.728125 13.990746860542  9.49036458333334 13.892046706323  9.28984375 13.694646397885  L 5.5 9.77131526768011  L 1.71015625 13.694646397885  C 1.50390625 13.8982154659617  1.26614583333333 14  0.996875 14  C 0.865104166666667 14  0.7390625 13.9722405816259  0.61875 13.9167217448777  C 0.4296875 13.8365278695748  0.279296875 13.7100682969817  0.167578125 13.5373430270985  C 0.055859375 13.3646177572152  0 13.173386208416  0 12.9636483807006  L 0 1.0363516192994  C 0 0.826613791584048  0.055859375 0.635382242784754  0.167578125 0.46265697290152  C 0.279296875 0.289931703018285  0.4296875 0.163472130425202  0.61875 0.0832782551222744  C 0.7390625 0.0277594183740915  0.865104166666667 0  0.996875 0  Z " fill-rule="nonzero" fill="#00d7d7" stroke="none" transform="matrix(1 0 0 1 458 7390 )" />
  </g>
</svg>