<?xml version="1.0" encoding="utf-8"?>
<svg version="1.1" xmlns:xlink="http://www.w3.org/1999/xlink" width="74px" height="38px" xmlns="http://www.w3.org/2000/svg">
  <g transform="matrix(1 0 0 1 -467 -548 )">
    <path d="M 467 548  L 541 548  L 541 586  L 467 586  L 467 548  " fill-rule="nonzero" fill="#cccccc" stroke="none" />
    <path d="M 470 551  L 538 551  L 538 583  L 470 583  L 470 551  " fill-rule="nonzero" fill="#ffffff" stroke="none" />
    <path d="M 508.33 559.4  C 506.734 559.4  505.48 558.146  505.48 556.55  C 505.48 554.954  506.734 553.7  508.33 553.7  C 509.926 553.7  511.18 554.954  511.18 556.55  C 511.18 558.146  509.926 559.4  508.33 559.4  " fill-rule="nonzero" fill="#cccccc" stroke="none" />
    <path d="M 471 582  L 471 565.5  L 487.5 558  L 510.6 572.756756756757  L 523.8 562.5  L 537 572.756756756757  L 537 582  L 471 582  " fill-rule="nonzero" fill="#169bd5" stroke="none" />
  </g>
</svg>