<?xml version="1.0" encoding="utf-8"?>
<svg version="1.1" xmlns:xlink="http://www.w3.org/1999/xlink" width="15px" height="12px" xmlns="http://www.w3.org/2000/svg">
  <g transform="matrix(1 0 0 1 -256 -2 )">
    <path d="M 8.21028513238289 11.3677419354839  C 7.83859470468432 11.789247311828  7.60183299389002 12  7.5 12  C 7.39816700610998 12  7.16140529531568 11.789247311828  6.78971486761711 11.3677419354839  C 6.41802443991853 10.9462365591398  6.23217922606925 10.6781362007168  6.23217922606925 10.5634408602151  C 6.23217922606925 10.3799283154122  6.3912932790224 10.2250896057348  6.70952138492872 10.0989247311828  C 7.02774949083503 9.97275985663082  7.29124236252546 9.90967741935484  7.5 9.90967741935484  C 7.70875763747454 9.90967741935484  7.97225050916497 9.97275985663082  8.29047861507128 10.0989247311828  C 8.6087067209776 10.2250896057348  8.76782077393075 10.3799283154122  8.76782077393075 10.5634408602151  C 8.76782077393075 10.6781362007168  8.58197556008147 10.9462365591398  8.21028513238289 11.3677419354839  Z M 10.2762219959267 9.02365591397849  C 9.89180244399185 9.45376344086021  9.65376782077393 9.66881720430107  9.56211812627291 9.66881720430107  C 9.55193482688391 9.66881720430107  9.45010183299389 9.59713261648745  9.25661914460285 9.45376344086021  C 9.06313645621181 9.31039426523297  8.80473523421589 9.16702508960573  8.48141547861507 9.02365591397849  C 8.15809572301426 8.88028673835126  7.83095723014257 8.80860215053763  7.5 8.80860215053763  C 7.16904276985743 8.80860215053763  6.84190427698574 8.88028673835126  6.51858452138493 9.02365591397849  C 6.19526476578411 9.16702508960573  5.93813645621181 9.31039426523297  5.74719959266803 9.45376344086021  C 5.55626272912424 9.59713261648745  5.45315682281059 9.66881720430107  5.43788187372709 9.66881720430107  C 5.34623217922607 9.66881720430107  5.10819755600815 9.45376344086021  4.72377800407332 9.02365591397849  C 4.33935845213849 8.59354838709677  4.14714867617108 8.32688172043011  4.14714867617108 8.2236559139785  C 4.14714867617108 8.14910394265233  4.17260692464358 8.0831541218638  4.22352342158859 8.0258064516129  C 4.62067209775967 7.584229390681  5.11965376782077 7.23727598566308  5.72046843177189 6.98494623655914  C 6.32128309572301 6.7326164874552  6.91446028513238 6.60645161290323  7.5 6.60645161290323  C 8.08553971486762 6.60645161290323  8.67871690427699 6.7326164874552  9.27953156822811 6.98494623655914  C 9.88034623217923 7.23727598566308  10.3793279022403 7.584229390681  10.7764765784114 8.0258064516129  C 10.8273930753564 8.0831541218638  10.8528513238289 8.14910394265233  10.8528513238289 8.2236559139785  C 10.8528513238289 8.32688172043011  10.6606415478615 8.59354838709677  10.2762219959267 9.02365591397849  Z M 12.3497963340122 6.68387096774194  C 11.9679226069246 7.11397849462366  11.7337067209776 7.32903225806452  11.6471486761711 7.32903225806452  C 11.5911405295316 7.32903225806452  11.5325865580448 7.30609318996416  11.4714867617108 7.26021505376344  C 10.7790224032587 6.65806451612903  10.1374745417515 6.21505376344086  9.54684317718941 5.93118279569893  C 8.95621181262729 5.64731182795699  8.27393075356416 5.50537634408602  7.5 5.50537634408602  C 7.06720977596741 5.50537634408602  6.6331466395112 5.56845878136201  6.19781059063136 5.69462365591398  C 5.76247454175153 5.82078853046595  5.3831466395112 5.97275985663082  5.05982688391039 6.1505376344086  C 4.73650712830957 6.32831541218638  4.44755600814664 6.50609318996416  4.19297352342159 6.68387096774194  C 3.93839103869654 6.86164874551971  3.73727087576375 7.01362007168459  3.58961303462322 7.13978494623656  C 3.44195519348269 7.26594982078853  3.36303462321792 7.32903225806452  3.35285132382892 7.32903225806452  C 3.2662932790224 7.32903225806452  3.03207739307536 7.11397849462366  2.65020366598778 6.68387096774194  C 2.2683299389002 6.25376344086022  2.07739307535642 5.98709677419355  2.07739307535642 5.88387096774194  C 2.07739307535642 5.81505376344086  2.10285132382892 5.75197132616487  2.15376782077393 5.69462365591398  C 2.82586558044807 4.93763440860215  3.64052953156823 4.34982078853047  4.59775967413442 3.93118279569892  C 5.55498981670061 3.51254480286738  6.5224032586558 3.30322580645161  7.5 3.30322580645161  C 8.4775967413442 3.30322580645161  9.44501018329939 3.51254480286738  10.4022403258656 3.93118279569892  C 11.3594704684318 4.34982078853047  12.1741344195519 4.93763440860215  12.8462321792261 5.69462365591398  C 12.8971486761711 5.75197132616487  12.9226069246436 5.81505376344086  12.9226069246436 5.88387096774194  C 12.9226069246436 5.98709677419355  12.7316700610998 6.25376344086022  12.3497963340122 6.68387096774194  Z M 14.4233706720978 4.35268817204301  C 14.0389511201629 4.78279569892473  13.8034623217923 4.99784946236559  13.7169042769857 4.99784946236559  C 13.6608961303462 4.99784946236559  13.6048879837067 4.97204301075269  13.5488798370672 4.92043010752688  C 12.6374745417515 4.02007168458781  11.691700610998 3.34193548387097  10.7115580448065 2.88602150537634  C 9.73141547861507 2.43010752688172  8.66089613034623 2.20215053763441  7.5 2.20215053763441  C 6.33910386965377 2.20215053763441  5.26858452138493 2.43010752688172  4.28844195519348 2.88602150537634  C 3.30829938900204 3.34193548387097  2.36252545824847 4.02007168458781  1.45112016293279 4.92043010752688  C 1.39511201629328 4.97204301075269  1.33910386965377 4.99784946236559  1.28309572301426 4.99784946236559  C 1.19653767820774 4.99784946236559  0.961048879837067 4.78279569892473  0.57662932790224 4.35268817204301  C 0.192209775967413 3.92258064516129  0 3.65591397849462  0 3.55268817204301  C 0 3.47813620071685  0.0254582484725051 3.41218637992831  0.0763747454175153 3.35483870967742  C 1.02851323828921 2.28817204301075  2.16140529531568 1.46236559139785  3.47505091649695 0.87741935483871  C 4.78869653767821 0.292473118279569  6.13034623217923 0  7.5 0  C 8.86965376782078 0  10.2113034623218 0.292473118279569  11.5249490835031 0.87741935483871  C 12.8385947046843 1.46236559139785  13.9714867617108 2.28817204301075  14.9236252545825 3.35483870967742  C 14.9745417515275 3.41218637992831  15 3.47813620071685  15 3.55268817204301  C 15 3.65591397849462  14.8077902240326 3.92258064516129  14.4233706720978 4.35268817204301  Z " fill-rule="nonzero" fill="#000000" stroke="none" transform="matrix(1 0 0 1 256 2 )" />
  </g>
</svg>