<?xml version="1.0" encoding="utf-8"?>
<svg version="1.1" xmlns:xlink="http://www.w3.org/1999/xlink" width="30px" height="30px" xmlns="http://www.w3.org/2000/svg">
  <defs>
    <mask fill="white" id="clip2">
      <path d="M 0 10  C 0 4.40000000000001  4.4 0  10 0  C 15.6 0  20 4.40000000000001  20 10  C 20 13.1575121683745  18.6011643618908 15.9335237081738  16.3771087413717 17.7544189636983  C 14.6564172207954 19.1630740268089  12.4423348794692 20  10 20  C 4.4 20  0 15.6  0 10  Z " fill-rule="evenodd" />
    </mask>
    <filter x="220px" y="358px" width="30px" height="30px" filterUnits="userSpaceOnUse" id="filter3">
      <feOffset dx="1" dy="1" in="SourceAlpha" result="shadowOffsetInner" />
      <feGaussianBlur stdDeviation="2.5" in="shadowOffsetInner" result="shadowGaussian" />
      <feComposite in2="shadowGaussian" operator="atop" in="SourceAlpha" result="shadowComposite" />
      <feColorMatrix type="matrix" values="0 0 0 0 0  0 0 0 0 0  0 0 0 0 0  0 0 0 0.698039215686274 0  " in="shadowComposite" />
    </filter>
    <g id="widget4">
      <path d="M 0 10  C 0 4.40000000000001  4.4 0  10 0  C 15.6 0  20 4.40000000000001  20 10  C 20 13.1575121683745  18.6011643618908 15.9335237081738  16.3771087413717 17.7544189636983  C 14.6564172207954 19.1630740268089  12.4423348794692 20  10 20  C 4.4 20  0 15.6  0 10  Z " fill-rule="nonzero" fill="#009dd9" stroke="none" transform="matrix(1 0 0 1 224 362 )" />
      <path d="M 0 10  C 0 4.40000000000001  4.4 0  10 0  C 15.6 0  20 4.40000000000001  20 10  C 20 13.1575121683745  18.6011643618908 15.9335237081738  16.3771087413717 17.7544189636983  C 14.6564172207954 19.1630740268089  12.4423348794692 20  10 20  C 4.4 20  0 15.6  0 10  Z " stroke-width="2" stroke="#ffffff" fill="none" transform="matrix(1 0 0 1 224 362 )" mask="url(#clip2)" />
    </g>
  </defs>
  <g transform="matrix(1 0 0 1 -220 -358 )">
    <use xlink:href="#widget4" filter="url(#filter3)" />
    <use xlink:href="#widget4" />
  </g>
</svg>