<?xml version="1.0" encoding="utf-8"?>
<svg version="1.1" xmlns:xlink="http://www.w3.org/1999/xlink" width="30px" height="30px" xmlns="http://www.w3.org/2000/svg">
  <defs>
    <mask fill="white" id="clip5">
      <path d="M 0 10  C 0 4.40000000000001  4.4 0  10 0  C 15.6 0  20 4.40000000000001  20 10  C 20 13.1575121683745  18.6011643618908 15.9335237081738  16.3771087413717 17.7544189636983  C 14.9041371283268 18.9602765497708  13.0697202308042 19.7471294623916  11.0400425846048 19.9487345650951  C 10.6986226245389 19.9826473424482  10.3516775837538 20  10 20  C 9.64837078703551 20  9.30147281527297 19.982652115593  8.96009829548385 19.9487485575504  C 3.86478769260569 19.4427085669968  0 15.2483707870355  0 10  Z " fill-rule="evenodd" />
    </mask>
    <filter x="289px" y="358px" width="30px" height="30px" filterUnits="userSpaceOnUse" id="filter6">
      <feOffset dx="1" dy="1" in="SourceAlpha" result="shadowOffsetInner" />
      <feGaussianBlur stdDeviation="2.5" in="shadowOffsetInner" result="shadowGaussian" />
      <feComposite in2="shadowGaussian" operator="atop" in="SourceAlpha" result="shadowComposite" />
      <feColorMatrix type="matrix" values="0 0 0 0 0  0 0 0 0 0  0 0 0 0 0  0 0 0 0.698039215686274 0  " in="shadowComposite" />
    </filter>
    <g id="widget7">
      <path d="M 0 10  C 0 4.40000000000001  4.4 0  10 0  C 15.6 0  20 4.40000000000001  20 10  C 20 13.1575121683745  18.6011643618908 15.9335237081738  16.3771087413717 17.7544189636983  C 14.9041371283268 18.9602765497708  13.0697202308042 19.7471294623916  11.0400425846048 19.9487345650951  C 10.6986226245389 19.9826473424482  10.3516775837538 20  10 20  C 9.64837078703551 20  9.30147281527297 19.982652115593  8.96009829548385 19.9487485575504  C 3.86478769260569 19.4427085669968  0 15.2483707870355  0 10  Z " fill-rule="nonzero" fill="#009dd9" stroke="none" transform="matrix(1 0 0 1 293 362 )" />
      <path d="M 0 10  C 0 4.40000000000001  4.4 0  10 0  C 15.6 0  20 4.40000000000001  20 10  C 20 13.1575121683745  18.6011643618908 15.9335237081738  16.3771087413717 17.7544189636983  C 14.9041371283268 18.9602765497708  13.0697202308042 19.7471294623916  11.0400425846048 19.9487345650951  C 10.6986226245389 19.9826473424482  10.3516775837538 20  10 20  C 9.64837078703551 20  9.30147281527297 19.982652115593  8.96009829548385 19.9487485575504  C 3.86478769260569 19.4427085669968  0 15.2483707870355  0 10  Z " stroke-width="2" stroke="#ffffff" fill="none" transform="matrix(1 0 0 1 293 362 )" mask="url(#clip5)" />
    </g>
  </defs>
  <g transform="matrix(1 0 0 1 -289 -358 )">
    <use xlink:href="#widget7" filter="url(#filter6)" />
    <use xlink:href="#widget7" />
  </g>
</svg>