<?xml version="1.0" encoding="utf-8"?>
<svg version="1.1" xmlns:xlink="http://www.w3.org/1999/xlink" width="30px" height="30px" xmlns="http://www.w3.org/2000/svg">
  <defs>
    <mask fill="white" id="clip8">
      <path d="M 0 10  C 0 8.46672252600445  0.329851249169451 7.02340448360053  0.923871476064107 5.73572814423255  C 2.49943417755787 2.32038905710397  5.93330039917385 0  10 0  C 15.6 0  20 4.39999999999998  20 10  C 20 13.1575121683745  18.6011643618908 15.9335237081738  16.3771087413717 17.7544189636983  C 14.9041371283267 18.9602765497708  13.0697202308042 19.7471294623916  11.0400425846048 19.948734565095  C 10.6986226245389 19.9826473424482  10.3516775837538 20  10 20  C 9.6483707870355 20  9.30147281527297 19.9826521155929  8.96009829548387 19.9487485575504  C 3.86478769260572 19.4427085669968  0 15.2483707870355  0 10  Z " fill-rule="evenodd" />
    </mask>
    <filter x="434px" y="555px" width="30px" height="30px" filterUnits="userSpaceOnUse" id="filter9">
      <feOffset dx="1" dy="1" in="SourceAlpha" result="shadowOffsetInner" />
      <feGaussianBlur stdDeviation="2.5" in="shadowOffsetInner" result="shadowGaussian" />
      <feComposite in2="shadowGaussian" operator="atop" in="SourceAlpha" result="shadowComposite" />
      <feColorMatrix type="matrix" values="0 0 0 0 0  0 0 0 0 0  0 0 0 0 0  0 0 0 0.698039215686274 0  " in="shadowComposite" />
    </filter>
    <g id="widget10">
      <path d="M 0 10  C 0 8.46672252600445  0.329851249169451 7.02340448360053  0.923871476064107 5.73572814423255  C 2.49943417755787 2.32038905710397  5.93330039917385 0  10 0  C 15.6 0  20 4.39999999999998  20 10  C 20 13.1575121683745  18.6011643618908 15.9335237081738  16.3771087413717 17.7544189636983  C 14.9041371283267 18.9602765497708  13.0697202308042 19.7471294623916  11.0400425846048 19.948734565095  C 10.6986226245389 19.9826473424482  10.3516775837538 20  10 20  C 9.6483707870355 20  9.30147281527297 19.9826521155929  8.96009829548387 19.9487485575504  C 3.86478769260572 19.4427085669968  0 15.2483707870355  0 10  Z " fill-rule="nonzero" fill="#009dd9" stroke="none" transform="matrix(1 0 0 1 438 559 )" />
      <path d="M 0 10  C 0 8.46672252600445  0.329851249169451 7.02340448360053  0.923871476064107 5.73572814423255  C 2.49943417755787 2.32038905710397  5.93330039917385 0  10 0  C 15.6 0  20 4.39999999999998  20 10  C 20 13.1575121683745  18.6011643618908 15.9335237081738  16.3771087413717 17.7544189636983  C 14.9041371283267 18.9602765497708  13.0697202308042 19.7471294623916  11.0400425846048 19.948734565095  C 10.6986226245389 19.9826473424482  10.3516775837538 20  10 20  C 9.6483707870355 20  9.30147281527297 19.9826521155929  8.96009829548387 19.9487485575504  C 3.86478769260572 19.4427085669968  0 15.2483707870355  0 10  Z " stroke-width="2" stroke="#ffffff" fill="none" transform="matrix(1 0 0 1 438 559 )" mask="url(#clip8)" />
    </g>
  </defs>
  <g transform="matrix(1 0 0 1 -434 -555 )">
    <use xlink:href="#widget10" filter="url(#filter9)" />
    <use xlink:href="#widget10" />
  </g>
</svg>