<?xml version="1.0" encoding="utf-8"?>
<svg version="1.1" xmlns:xlink="http://www.w3.org/1999/xlink" width="42px" height="42px" xmlns="http://www.w3.org/2000/svg">
  <g transform="matrix(1 0 0 1 -500 -1491 )">
    <path d="M 500 1491  L 542 1491  L 542 1533  L 500 1533  L 500 1491  " fill-rule="nonzero" fill="#cccccc" stroke="none" />
    <path d="M 503 1494  L 539 1494  L 539 1530  L 503 1530  L 503 1494  " fill-rule="nonzero" fill="#ffffff" stroke="none" />
    <path d="M 524.99 1503.6  C 523.226 1503.6  521.84 1502.214  521.84 1500.45  C 521.84 1498.686  523.226 1497.3  524.99 1497.3  C 526.754 1497.3  528.14 1498.686  528.14 1500.45  C 528.14 1502.214  526.754 1503.6  524.99 1503.6  " fill-rule="nonzero" fill="#cccccc" stroke="none" />
    <path d="M 504 1529  L 504 1510.3  L 512.5 1501.8  L 524.4 1508.6  L 531.2 1506.9  L 538 1508.6  L 538 1529  L 504 1529  " fill-rule="nonzero" fill="#169bd5" stroke="none" />
  </g>
</svg>