<?xml version="1.0" encoding="utf-8"?>
<svg version="1.1" xmlns:xlink="http://www.w3.org/1999/xlink" width="78px" height="34px" xmlns="http://www.w3.org/2000/svg">
  <g transform="matrix(1 0 0 1 -1256 -1304 )">
    <path d="M 1256 1304  L 1334 1304  L 1334 1338  L 1256 1338  L 1256 1304  " fill-rule="nonzero" fill="#cccccc" stroke="none" />
    <path d="M 1258 1306  L 1332 1306  L 1332 1336  L 1258 1336  L 1258 1306  " fill-rule="nonzero" fill="#ffffff" stroke="none" />
    <path d="M 1299.11 1314.2  C 1297.682 1314.2  1296.56 1313.078  1296.56 1311.65  C 1296.56 1310.222  1297.682 1309.1  1299.11 1309.1  C 1300.538 1309.1  1301.66 1310.222  1301.66 1311.65  C 1301.66 1313.078  1300.538 1314.2  1299.11 1314.2  " fill-rule="nonzero" fill="#cccccc" stroke="none" />
    <path d="M 1259 1335  L 1259 1319.6  L 1277 1312.6  L 1302.2 1327.67692307692  L 1316.6 1316.8  L 1331 1327.67692307692  L 1331 1335  L 1259 1335  " fill-rule="nonzero" fill="#169bd5" stroke="none" />
  </g>
</svg>