<?xml version="1.0" encoding="utf-8"?>
<svg version="1.1" xmlns:xlink="http://www.w3.org/1999/xlink" width="117px" height="117px" xmlns="http://www.w3.org/2000/svg">
  <g transform="matrix(1 0 0 1 -197 -1329 )">
    <path d="M 197 1329  L 314 1329  L 314 1446  L 197 1446  L 197 1329  " fill-rule="nonzero" fill="#cccccc" stroke="none" />
    <path d="M 205 1337  L 306 1337  L 306 1438  L 205 1438  L 205 1337  " fill-rule="nonzero" fill="#ffffff" stroke="none" />
    <path d="M 266.615 1364.1  C 261.701 1364.1  257.84 1360.239  257.84 1355.325  C 257.84 1350.411  261.701 1346.55  266.615 1346.55  C 271.529 1346.55  275.39 1350.411  275.39 1355.325  C 275.39 1360.239  271.529 1364.1  266.615 1364.1  " fill-rule="nonzero" fill="#cccccc" stroke="none" />
    <path d="M 208 1435  L 208 1382.75  L 231.75 1359  L 265 1378  L 284 1373.25  L 303 1378  L 303 1435  L 208 1435  " fill-rule="nonzero" fill="#169bd5" stroke="none" />
  </g>
</svg>