<?xml version="1.0" encoding="utf-8"?>
<svg version="1.1" xmlns:xlink="http://www.w3.org/1999/xlink" width="45px" height="45px" xmlns="http://www.w3.org/2000/svg">
  <g transform="matrix(1 0 0 1 -1049 -2475 )">
    <path d="M 1049 2475  L 1094 2475  L 1094 2520  L 1049 2520  L 1049 2475  " fill-rule="nonzero" fill="#cccccc" stroke="none" />
    <path d="M 1052 2478  L 1091 2478  L 1091 2517  L 1052 2517  L 1052 2478  " fill-rule="nonzero" fill="#ffffff" stroke="none" />
    <path d="M 1075.775 2488.5  C 1073.885 2488.5  1072.4 2487.015  1072.4 2485.125  C 1072.4 2483.235  1073.885 2481.75  1075.775 2481.75  C 1077.665 2481.75  1079.15 2483.235  1079.15 2485.125  C 1079.15 2487.015  1077.665 2488.5  1075.775 2488.5  " fill-rule="nonzero" fill="#cccccc" stroke="none" />
    <path d="M 1053 2516  L 1053 2495.65  L 1062.25 2486.4  L 1075.2 2493.8  L 1082.6 2491.95  L 1090 2493.8  L 1090 2516  L 1053 2516  " fill-rule="nonzero" fill="#169bd5" stroke="none" />
  </g>
</svg>