<?xml version="1.0" encoding="utf-8"?>
<svg version="1.1" xmlns:xlink="http://www.w3.org/1999/xlink" width="154px" height="80px" xmlns="http://www.w3.org/2000/svg">
  <g transform="matrix(1 0 0 1 -216 -2984 )">
    <path d="M 216 2984  L 370 2984  L 370 3064  L 216 3064  L 216 2984  " fill-rule="nonzero" fill="#cccccc" stroke="none" />
    <path d="M 222 2990  L 364 2990  L 364 3058  L 222 3058  L 222 2990  " fill-rule="nonzero" fill="#ffffff" stroke="none" />
    <path d="M 302.08 3008  C 298.72 3008  296.08 3005.36  296.08 3002  C 296.08 2998.64  298.72 2996  302.08 2996  C 305.44 2996  308.08 2998.64  308.08 3002  C 308.08 3005.36  305.44 3008  302.08 3008  " fill-rule="nonzero" fill="#cccccc" stroke="none" />
    <path d="M 224 3056  L 224 3020.8  L 258.5 3004.8  L 306.8 3036.05194805195  L 334.4 3014.4  L 362 3036.05194805195  L 362 3056  L 224 3056  " fill-rule="nonzero" fill="#169bd5" stroke="none" />
  </g>
</svg>