<?xml version="1.0" encoding="utf-8"?>
<svg version="1.1" xmlns:xlink="http://www.w3.org/1999/xlink" width="26px" height="20px" xmlns="http://www.w3.org/2000/svg">
  <g transform="matrix(1 0 0 1 -2740 -3494 )">
    <path d="M 2740 3494  L 2766 3494  L 2766 3514  L 2740 3514  L 2740 3494  " fill-rule="nonzero" fill="#cccccc" stroke="none" />
    <path d="M 2741 3495  L 2765 3495  L 2765 3513  L 2741 3513  L 2741 3495  " fill-rule="nonzero" fill="#ffffff" stroke="none" />
    <path d="M 2755.02 3500  C 2754.18 3500  2753.52 3499.34  2753.52 3498.5  C 2753.52 3497.66  2754.18 3497  2755.02 3497  C 2755.86 3497  2756.52 3497.66  2756.52 3498.5  C 2756.52 3499.34  2755.86 3500  2755.02 3500  " fill-rule="nonzero" fill="#cccccc" stroke="none" />
    <path d="M 2742 3513  L 2742 3503.65  L 2747.75 3499.4  L 2755.8 3505.15384615385  L 2760.4 3501.95  L 2765 3505.15384615385  L 2765 3513  L 2742 3513  " fill-rule="nonzero" fill="#169bd5" stroke="none" />
  </g>
</svg>