<?xml version="1.0" encoding="utf-8"?>
<svg version="1.1" xmlns:xlink="http://www.w3.org/1999/xlink" width="29px" height="29px" xmlns="http://www.w3.org/2000/svg">
  <g transform="matrix(1 0 0 1 -1297 -4225 )">
    <path d="M 1311.5 4225  C 1319.62 4225  1326 4231.38  1326 4239.5  C 1326 4247.62  1319.62 4254  1311.5 4254  C 1303.38 4254  1297 4247.62  1297 4239.5  C 1297 4231.38  1303.38 4225  1311.5 4225  Z " fill-rule="nonzero" fill="#ffffff" stroke="none" />
    <path d="M 1311.5 4225.5  C 1319.34 4225.5  1325.5 4231.66  1325.5 4239.5  C 1325.5 4247.34  1319.34 4253.5  1311.5 4253.5  C 1303.66 4253.5  1297.5 4247.34  1297.5 4239.5  C 1297.5 4231.66  1303.66 4225.5  1311.5 4225.5  Z " stroke-width="1" stroke="#797979" fill="none" />
  </g>
</svg>