<?xml version="1.0" encoding="utf-8"?>
<svg version="1.1" xmlns:xlink="http://www.w3.org/1999/xlink" width="40px" height="40px" xmlns="http://www.w3.org/2000/svg">
  <g transform="matrix(1 0 0 1 -215 -620 )">
    <path d="M 215 620  L 255 620  L 255 660  L 215 660  L 215 620  " fill-rule="nonzero" fill="#cccccc" stroke="none" />
    <path d="M 218 623  L 252 623  L 252 657  L 218 657  L 218 623  " fill-rule="nonzero" fill="#ffffff" stroke="none" />
    <path d="M 238.8 632  C 237.12 632  235.8 630.68  235.8 629  C 235.8 627.32  237.12 626  238.8 626  C 240.48 626  241.8 627.32  241.8 629  C 241.8 630.68  240.48 632  238.8 632  " fill-rule="nonzero" fill="#cccccc" stroke="none" />
    <path d="M 219 656  L 219 638.4  L 227 630.4  L 238.2 636.8  L 244.6 635.2  L 251 636.8  L 251 656  L 219 656  " fill-rule="nonzero" fill="#169bd5" stroke="none" />
  </g>
</svg>