<?xml version="1.0" encoding="utf-8"?>
<svg version="1.1" xmlns:xlink="http://www.w3.org/1999/xlink" width="62px" height="62px" xmlns="http://www.w3.org/2000/svg">
  <defs>
    <mask fill="white" id="clip35">
      <path d="M 226 1340  C 220.45 1340  216 1335.55  216 1330  L 216 1288  C 216 1282.45  220.45 1278  226 1278  L 268 1278  C 273.55 1278  278 1282.45  278 1288  L 278 1330  C 278 1335.55  273.55 1340  268 1340  " fill-rule="evenodd" />
    </mask>
  </defs>
  <g transform="matrix(1 0 0 1 -216 -1278 )">
    <path d="M 216 1278  L 278 1278  L 278 1340  L 216 1340  L 216 1278  " fill-rule="nonzero" fill="#cccccc" stroke="none" mask="url(#clip35)" />
    <path d="M 220 1282  L 274 1282  L 274 1336  L 220 1336  L 220 1282  " fill-rule="nonzero" fill="#ffffff" stroke="none" mask="url(#clip35)" />
    <path d="M 252.89 1296.6  C 250.286 1296.6  248.24 1294.554  248.24 1291.95  C 248.24 1289.346  250.286 1287.3  252.89 1287.3  C 255.494 1287.3  257.54 1289.346  257.54 1291.95  C 257.54 1294.554  255.494 1296.6  252.89 1296.6  " fill-rule="nonzero" fill="#cccccc" stroke="none" mask="url(#clip35)" />
    <path d="M 222 1335  L 222 1306.95  L 234.75 1294.2  L 252.6 1304.4  L 262.8 1301.85  L 273 1304.4  L 273 1335  L 222 1335  " fill-rule="nonzero" fill="#169bd5" stroke="none" mask="url(#clip35)" />
  </g>
</svg>