<?xml version="1.0" encoding="utf-8"?>
<svg version="1.1" xmlns:xlink="http://www.w3.org/1999/xlink" width="21px" height="13px" xmlns="http://www.w3.org/2000/svg">
  <defs>
    <mask fill="white" id="clip36">
      <path d="M 2.5920399312373 1.16043956043955  L 2.5920399312373 0  L 20 0  L 20 6.8043956043956  L 18.4751782332871 6.8043956043956  L 18.4751782332871 7.93846153846154  L 17.2343080534394 7.93846153846154  L 17.2343080534394 9.29479839864019  C 17.2434996844013 9.29479839864019  15.5706228493474 9.13173176006758  12.3106577348835 9.29479839864019  C 9.05069262041958 9.45786503721284  7.54939289665329 11.7815646368729  4.76126483823019 11.9853979350887  C 1.97313677980712 12.1892312333045  0 10.1916649107897  0 10.1916649107897  L 0 2.37362637362637  L 1.37874464427514 2.37362637362637  L 1.37874464427514 1.16043956043955  L 2.5920399312373 1.16043956043955  Z " fill-rule="evenodd" />
    </mask>
  </defs>
  <g transform="matrix(1 0 0 1 -1006 -1451 )">
    <path d="M 2.5920399312373 1.16043956043955  L 2.5920399312373 0  L 20 0  L 20 6.8043956043956  L 18.4751782332871 6.8043956043956  L 18.4751782332871 7.93846153846154  L 17.2343080534394 7.93846153846154  L 17.2343080534394 9.29479839864019  C 17.2434996844013 9.29479839864019  15.5706228493474 9.13173176006758  12.3106577348835 9.29479839864019  C 9.05069262041958 9.45786503721284  7.54939289665329 11.7815646368729  4.76126483823019 11.9853979350887  C 1.97313677980712 12.1892312333045  0 10.1916649107897  0 10.1916649107897  L 0 2.37362637362637  L 1.37874464427514 2.37362637362637  L 1.37874464427514 1.16043956043955  L 2.5920399312373 1.16043956043955  Z " fill-rule="nonzero" fill="#ffffff" stroke="none" transform="matrix(1 0 0 1 1006 1451 )" />
    <path d="M 2.5920399312373 1.16043956043955  L 2.5920399312373 0  L 20 0  L 20 6.8043956043956  L 18.4751782332871 6.8043956043956  L 18.4751782332871 7.93846153846154  L 17.2343080534394 7.93846153846154  L 17.2343080534394 9.29479839864019  C 17.2434996844013 9.29479839864019  15.5706228493474 9.13173176006758  12.3106577348835 9.29479839864019  C 9.05069262041958 9.45786503721284  7.54939289665329 11.7815646368729  4.76126483823019 11.9853979350887  C 1.97313677980712 12.1892312333045  0 10.1916649107897  0 10.1916649107897  L 0 2.37362637362637  L 1.37874464427514 2.37362637362637  L 1.37874464427514 1.16043956043955  L 2.5920399312373 1.16043956043955  Z " stroke-width="2" stroke="#797979" fill="none" transform="matrix(1 0 0 1 1006 1451 )" mask="url(#clip36)" />
    <path d="M 17.2343080534394 2.37362637362637  L 1.40631953716065 2.38681318681318  M 2.5920399312373 1.16043956043955  L 18.4751782332871 1.17362637362637  M 18.4613907868443 6.8043956043956  L 18.4751782332871 1.16043956043955  M 17.2205206069967 2.37362637362637  L 17.2205206069967 7.93846153846154  " stroke-width="1" stroke="#797979" fill="none" transform="matrix(1 0 0 1 1006 1451 )" mask="url(#clip36)" />
  </g>
</svg>