<?xml version="1.0" encoding="utf-8"?>
<svg version="1.1" xmlns:xlink="http://www.w3.org/1999/xlink" width="110px" height="70px" xmlns="http://www.w3.org/2000/svg">
  <g transform="matrix(1 0 0 1 380 -1500 )">
    <path d="M -369.5 1569.5  L -270.5 1569.5  L -270.5 1510.5  L -275.5 1510.5  L -275.5 1505.5  L -280.5 1505.5  L -280.5 1500.5  L -379.5 1500.5  L -379.5 1559.5  L -374.5 1559.5  L -374.5 1564.5  L -369.5 1564.5  L -369.5 1569.5  Z " fill-rule="nonzero" fill="#ffffff" stroke="none" />
    <path d="M -369.5 1569.5  L -270.5 1569.5  L -270.5 1510.5  L -275.5 1510.5  L -275.5 1505.5  L -280.5 1505.5  L -280.5 1500.5  L -379.5 1500.5  L -379.5 1559.5  L -374.5 1559.5  L -374.5 1564.5  L -369.5 1564.5  L -369.5 1569.5  Z " stroke-width="1" stroke="#797979" fill="none" />
    <path d="M -275.5 1511  L -275.5 1564.5  L -369 1564.5  M -280.5 1506  L -280.5 1559.5  L -374 1559.5  " stroke-width="1" stroke="#797979" fill="none" />
  </g>
</svg>