<?xml version="1.0" encoding="utf-8"?>
<svg version="1.1" xmlns:xlink="http://www.w3.org/1999/xlink" width="22px" height="19px" xmlns="http://www.w3.org/2000/svg">
  <g transform="matrix(1 0 0 1 -525 -2883 )">
    <path d="M 8.66822916666667 8.63792067307692  C 9.31371527777778 7.99469150641026  10.0909722222222 7.67307692307692  11 7.67307692307692  C 11.9090277777778 7.67307692307692  12.6862847222222 7.99469150641026  13.3317708333333 8.63792067307692  C 13.9772569444444 9.28114983974359  14.3 10.0556891025641  14.3 10.9615384615385  C 14.3 11.8673878205128  13.9772569444444 12.6419270833333  13.3317708333333 13.28515625  C 12.6862847222222 13.9283854166667  11.9090277777778 14.25  11 14.25  C 10.0909722222222 14.25  9.31371527777778 13.9283854166667  8.66822916666667 13.28515625  C 8.02274305555556 12.6419270833333  7.7 11.8673878205128  7.7 10.9615384615385  C 7.7 10.0556891025641  8.02274305555556 9.28114983974359  8.66822916666667 8.63792067307692  Z M 16.5 2.92307692307692  L 19.0666666666667 2.92307692307692  C 19.8763888888889 2.92307692307692  20.5677083333333 3.20853365384615  21.140625 3.77944711538462  C 21.7135416666667 4.35036057692308  22 5.03926282051282  22 5.84615384615385  L 22 16.0769230769231  C 22 16.8838141025641  21.7135416666667 17.5727163461538  21.140625 18.1436298076923  C 20.5677083333333 18.7145432692308  19.8763888888889 19  19.0666666666667 19  L 2.93333333333333 19  C 2.12361111111111 19  1.43229166666667 18.7145432692308  0.859375 18.1436298076923  C 0.286458333333333 17.5727163461538  0 16.8838141025641  0 16.0769230769231  L 0 5.84615384615385  C 0 5.03926282051282  0.286458333333333 4.35036057692308  0.859375 3.77944711538462  C 1.43229166666667 3.20853365384615  2.12361111111111 2.92307692307692  2.93333333333333 2.92307692307692  L 5.5 2.92307692307692  L 6.084375 1.37019230769231  C 6.22951388888889 0.997195512820512  6.49496527777778 0.675580929487178  6.88072916666667 0.405348557692307  C 7.26649305555556 0.135116185897438  7.66180555555556 0  8.06666666666667 0  L 13.9333333333333 0  C 14.3381944444444 0  14.7335069444444 0.135116185897438  15.1192708333333 0.405348557692307  C 15.5050347222222 0.675580929487178  15.7704861111111 0.997195512820512  15.915625 1.37019230769231  L 16.5 2.92307692307692  Z M 7.3734375 14.5754206730769  C 8.37795138888889 15.576422275641  9.58680555555556 16.0769230769231  11 16.0769230769231  C 12.4131944444444 16.0769230769231  13.6220486111111 15.576422275641  14.6265625 14.5754206730769  C 15.6310763888889 13.5744190705128  16.1333333333333 12.3697916666667  16.1333333333333 10.9615384615385  C 16.1333333333333 9.55328525641026  15.6310763888889 8.3486578525641  14.6265625 7.34765625  C 13.6220486111111 6.3466546474359  12.4131944444444 5.84615384615385  11 5.84615384615385  C 9.58680555555556 5.84615384615385  8.37795138888889 6.3466546474359  7.3734375 7.34765625  C 6.36892361111111 8.3486578525641  5.86666666666667 9.55328525641026  5.86666666666667 10.9615384615385  C 5.86666666666667 12.3697916666667  6.36892361111111 13.5744190705128  7.3734375 14.5754206730769  Z " fill-rule="nonzero" fill="#ffffff" stroke="none" transform="matrix(1 0 0 1 525 2883 )" />
  </g>
</svg>