<?xml version="1.0" encoding="utf-8"?>
<svg version="1.1" xmlns:xlink="http://www.w3.org/1999/xlink" width="360px" height="513px" xmlns="http://www.w3.org/2000/svg">
  <g transform="matrix(1 0 0 1 -988 -2917 )">
    <path d="M 988 2917  L 1348 2917  L 1348 3430  L 988 3430  L 988 2917  " fill-rule="nonzero" fill="#cccccc" stroke="none" />
    <path d="M 1013 2942  L 1323 2942  L 1323 3405  L 1013 3405  L 1013 2942  " fill-rule="nonzero" fill="#ffffff" stroke="none" />
    <path d="M 1202.2 3047.95  C 1187.08 3047.95  1175.2 3036.07  1175.2 3020.95  C 1175.2 3005.83  1187.08 2993.95  1202.2 2993.95  C 1217.32 2993.95  1229.2 3005.83  1229.2 3020.95  C 1229.2 3036.07  1217.32 3047.95  1202.2 3047.95  " fill-rule="nonzero" fill="#cccccc" stroke="none" />
    <path d="M 1022 3396  L 1022 3151.25  L 1095 3040  L 1197.2 3129  L 1255.6 3106.75  L 1314 3129  L 1314 3396  L 1022 3396  " fill-rule="nonzero" fill="#169bd5" stroke="none" />
  </g>
</svg>