<?xml version="1.0" encoding="utf-8"?>
<svg version="1.1" xmlns:xlink="http://www.w3.org/1999/xlink" width="300px" height="471px" xmlns="http://www.w3.org/2000/svg">
  <g transform="matrix(1 0 0 1 -1020 -3739 )">
    <path d="M 1020 3739  L 1320 3739  L 1320 4210  L 1020 4210  L 1020 3739  " fill-rule="nonzero" fill="#cccccc" stroke="none" />
    <path d="M 1041 3760  L 1299 3760  L 1299 4189  L 1041 4189  L 1041 3760  " fill-rule="nonzero" fill="#ffffff" stroke="none" />
    <path d="M 1198.5 3854.65  C 1185.9 3854.65  1176 3844.75  1176 3832.15  C 1176 3819.55  1185.9 3809.65  1198.5 3809.65  C 1211.1 3809.65  1221 3819.55  1221 3832.15  C 1221 3844.75  1211.1 3854.65  1198.5 3854.65  " fill-rule="nonzero" fill="#cccccc" stroke="none" />
    <path d="M 1049 4182  L 1049 3954.3  L 1109.75 3850.8  L 1194.8 3933.6  L 1243.4 3912.9  L 1292 3933.6  L 1292 4182  L 1049 4182  " fill-rule="nonzero" fill="#169bd5" stroke="none" />
  </g>
</svg>