<?xml version="1.0" encoding="utf-8"?>
<svg version="1.1" xmlns:xlink="http://www.w3.org/1999/xlink" width="29px" height="29px" xmlns="http://www.w3.org/2000/svg">
  <g transform="matrix(1 0 0 1 -2071 -4242 )">
    <path d="M 28.4232954545455 11.1221590909091  C 28.8077651515152 11.5066287878788  29 11.9734848484848  29 12.5227272727273  L 29 16.4772727272727  C 29 17.0265151515152  28.8077651515152 17.4933712121212  28.4232954545455 17.8778409090909  C 28.0388257575758 18.2623106060606  27.5719696969697 18.4545454545455  27.0227272727273 18.4545454545455  L 18.4545454545455 18.4545454545455  L 18.4545454545455 27.0227272727273  C 18.4545454545455 27.5719696969697  18.2623106060606 28.0388257575758  17.8778409090909 28.4232954545455  C 17.4933712121212 28.8077651515152  17.0265151515152 29  16.4772727272727 29  L 12.5227272727273 29  C 11.9734848484848 29  11.5066287878788 28.8077651515152  11.1221590909091 28.4232954545455  C 10.7376893939394 28.0388257575758  10.5454545454545 27.5719696969697  10.5454545454545 27.0227272727273  L 10.5454545454545 18.4545454545455  L 1.97727272727273 18.4545454545455  C 1.4280303030303 18.4545454545455  0.961174242424243 18.2623106060606  0.576704545454545 17.8778409090909  C 0.192234848484848 17.4933712121212  0 17.0265151515152  0 16.4772727272727  L 0 12.5227272727273  C 0 11.9734848484848  0.192234848484848 11.5066287878788  0.576704545454545 11.1221590909091  C 0.961174242424243 10.7376893939394  1.4280303030303 10.5454545454545  1.97727272727273 10.5454545454545  L 10.5454545454545 10.5454545454545  L 10.5454545454545 1.97727272727273  C 10.5454545454545 1.4280303030303  10.7376893939394 0.961174242424241  11.1221590909091 0.576704545454546  C 11.5066287878788 0.192234848484848  11.9734848484848 0  12.5227272727273 0  L 16.4772727272727 0  C 17.0265151515152 0  17.4933712121212 0.192234848484848  17.8778409090909 0.576704545454546  C 18.2623106060606 0.961174242424241  18.4545454545455 1.4280303030303  18.4545454545455 1.97727272727273  L 18.4545454545455 10.5454545454545  L 27.0227272727273 10.5454545454545  C 27.5719696969697 10.5454545454545  28.0388257575758 10.7376893939394  28.4232954545455 11.1221590909091  Z " fill-rule="nonzero" fill="#00d7d7" stroke="none" transform="matrix(1 0 0 1 2071 4242 )" />
  </g>
</svg>