<?xml version="1.0" encoding="utf-8"?>
<svg version="1.1" xmlns:xlink="http://www.w3.org/1999/xlink" width="92px" height="92px" xmlns="http://www.w3.org/2000/svg">
  <g transform="matrix(1 0 0 1 -987 -2303 )">
    <path d="M 1033 2304  C 1058.2 2304  1078 2323.8  1078 2349  C 1078 2374.2  1058.2 2394  1033 2394  C 1007.8 2394  988 2374.2  988 2349  C 988 2323.8  1007.8 2304  1033 2304  Z " fill-rule="nonzero" fill="#d7d7d7" stroke="none" />
    <path d="M 1033 2304  C 1058.2 2304  1078 2323.8  1078 2349  C 1078 2374.2  1058.2 2394  1033 2394  C 1007.8 2394  988 2374.2  988 2349  C 988 2323.8  1007.8 2304  1033 2304  Z " stroke-width="2" stroke="#999999" fill="none" />
  </g>
</svg>