<?xml version="1.0" encoding="utf-8"?>
<svg version="1.1" xmlns:xlink="http://www.w3.org/1999/xlink" width="9px" height="27px" xmlns="http://www.w3.org/2000/svg">
  <g transform="matrix(1 0 0 1 -1028 -2335 )">
    <path d="M 7.99103139013453 20.6143465909091  C 8.24663677130045 20.8572443181818  8.37443946188341 21.1448863636364  8.37443946188341 21.4772727272727  L 8.37443946188341 25.7727272727273  C 8.37443946188341 26.1051136363636  8.24663677130045 26.3927556818182  7.99103139013453 26.6356534090909  C 7.73542600896861 26.8785511363636  7.43273542600897 27  7.08295964125561 27  L 1.91704035874439 27  C 1.56726457399103 27  1.26457399103139 26.8785511363636  1.00896860986547 26.6356534090909  C 0.753363228699552 26.3927556818182  0.625560538116592 26.1051136363636  0.625560538116592 25.7727272727273  L 0.625560538116592 21.4772727272727  C 0.625560538116592 21.1448863636364  0.753363228699552 20.8572443181818  1.00896860986547 20.6143465909091  C 1.26457399103139 20.3714488636364  1.56726457399103 20.25  1.91704035874439 20.25  L 7.08295964125561 20.25  C 7.43273542600897 20.25  7.73542600896861 20.3714488636364  7.99103139013453 20.6143465909091  Z M 8.62668161434978 0.364346590909092  C 8.87556053811659 0.607244318181814  8.9932735426009 0.894886363636362  8.97982062780269 1.22727272727273  L 8.41479820627803 15.9545454545455  C 8.40134529147982 16.2869318181818  8.26345291479821 16.5745738636364  8.00112107623318 16.8174715909091  C 7.73878923766816 17.0603693181818  7.43273542600897 17.1818181818182  7.08295964125561 17.1818181818182  L 1.91704035874439 17.1818181818182  C 1.56726457399103 17.1818181818182  1.26121076233184 17.0603693181818  0.998878923766816 16.8174715909091  C 0.736547085201794 16.5745738636364  0.59865470852018 16.2869318181818  0.585201793721973 15.9545454545455  L 0.0201793721973094 1.22727272727273  C 0.00672645739910333 0.894886363636362  0.124439461883408 0.607244318181814  0.373318385650224 0.364346590909092  C 0.622197309417041 0.121448863636361  0.92152466367713 0  1.27130044843049 0  L 7.72869955156951 0  C 8.07847533632287 0  8.37780269058296 0.121448863636361  8.62668161434978 0.364346590909092  Z " fill-rule="nonzero" fill="#999999" stroke="none" transform="matrix(1 0 0 1 1028 2335 )" />
  </g>
</svg>