<?xml version="1.0" encoding="utf-8"?>
<svg version="1.1" xmlns:xlink="http://www.w3.org/1999/xlink" width="92px" height="92px" xmlns="http://www.w3.org/2000/svg">
  <g transform="matrix(1 0 0 1 -1710 -2248 )">
    <path d="M 1756 2249  C 1781.2 2249  1801 2268.8  1801 2294  C 1801 2319.2  1781.2 2339  1756 2339  C 1730.8 2339  1711 2319.2  1711 2294  C 1711 2268.8  1730.8 2249  1756 2249  Z " fill-rule="nonzero" fill="#f2f2f2" stroke="none" />
    <path d="M 1756 2249  C 1781.2 2249  1801 2268.8  1801 2294  C 1801 2319.2  1781.2 2339  1756 2339  C 1730.8 2339  1711 2319.2  1711 2294  C 1711 2268.8  1730.8 2249  1756 2249  Z " stroke-width="2" stroke="#999999" fill="none" />
  </g>
</svg>