<?xml version="1.0" encoding="utf-8"?>
<svg version="1.1" xmlns:xlink="http://www.w3.org/1999/xlink" width="19px" height="17px" xmlns="http://www.w3.org/2000/svg">
  <g transform="matrix(1 0 0 1 -1525 -6860 )">
    <path d="M 1.57001201923077 15.4781901041667  C 1.64232772435897 15.5482855902778  1.72796474358974 15.5833333333333  1.82692307692308 15.5833333333333  L 9 15.5833333333333  L 9 2.83333333333333  L 1.46153846153846 2.83333333333333  L 1.46153846153846 15.2291666666667  C 1.46153846153846 15.3250868055556  1.49769631410256 15.4080946180556  1.57001201923077 15.4781901041667  Z M 17.4299879807692 15.4781901041667  C 17.5023036858974 15.4080946180556  17.5384615384615 15.3250868055556  17.5384615384615 15.2291666666667  L 17.5384615384615 2.83333333333333  L 10 2.83333333333333  L 10 15.5833333333333  L 17.1730769230769 15.5833333333333  C 17.2720352564103 15.5833333333333  17.357672275641 15.5482855902778  17.4299879807692 15.4781901041667  Z M 18.4633413461538 0.520182291666667  C 18.8211137820513 0.86697048611111  19 1.28385416666667  19 1.77083333333333  L 19 15.2291666666667  C 19 15.7161458333333  18.8211137820513 16.1330295138889  18.4633413461538 16.4798177083333  C 18.1055689102564 16.8266059027778  17.6754807692308 17  17.1730769230769 17  L 1.82692307692308 17  C 1.32451923076923 17  0.89443108974359 16.8266059027778  0.536658653846154 16.4798177083333  C 0.178886217948718 16.1330295138889  0 15.7161458333333  0 15.2291666666667  L 0 1.77083333333333  C 0 1.28385416666667  0.178886217948718 0.86697048611111  0.536658653846154 0.520182291666667  C 0.89443108974359 0.173394097222221  1.32451923076923 0  1.82692307692308 0  L 17.1730769230769 0  C 17.6754807692308 0  18.1055689102564 0.173394097222221  18.4633413461538 0.520182291666667  Z " fill-rule="nonzero" fill="#d9c141" stroke="none" transform="matrix(1 0 0 1 1525 6860 )" />
  </g>
</svg>