<?xml version="1.0" encoding="utf-8"?>
<svg version="1.1" xmlns:xlink="http://www.w3.org/1999/xlink" width="30px" height="30px" xmlns="http://www.w3.org/2000/svg">
  <defs>
    <mask fill="white" id="clip43">
      <path d="M 0 10  C 0 5.93330039917385  5.73567038530098 0.923898121163234  5.73567038530098 0.923898121163234  C 7.0234044836005 0.329851249169451  8.46672252600442 0  10 0  C 15.6 0  20 4.39999999999998  20 10  C 20 15.6  15.6 20  10 20  C 9.71188620516443 20  9.42694879650645 19.9883532506822  9.14562356482395 19.9654955428442  C 9.14517121942637 19.965458789728  9.1447188833676 19.9654220076272  9.14426655664946 19.9653851965438  C 3.9582060029885 19.5433351606611  0 15.3114229443745  0 10  Z " fill-rule="evenodd" />
    </mask>
    <filter x="219px" y="534px" width="30px" height="30px" filterUnits="userSpaceOnUse" id="filter44">
      <feOffset dx="1" dy="1" in="SourceAlpha" result="shadowOffsetInner" />
      <feGaussianBlur stdDeviation="2.5" in="shadowOffsetInner" result="shadowGaussian" />
      <feComposite in2="shadowGaussian" operator="atop" in="SourceAlpha" result="shadowComposite" />
      <feColorMatrix type="matrix" values="0 0 0 0 0  0 0 0 0 0  0 0 0 0 0  0 0 0 0.698039215686274 0  " in="shadowComposite" />
    </filter>
    <g id="widget45">
      <path d="M 0 10  C 0 5.93330039917385  5.73567038530098 0.923898121163234  5.73567038530098 0.923898121163234  C 7.0234044836005 0.329851249169451  8.46672252600442 0  10 0  C 15.6 0  20 4.39999999999998  20 10  C 20 15.6  15.6 20  10 20  C 9.71188620516443 20  9.42694879650645 19.9883532506822  9.14562356482395 19.9654955428442  C 9.14517121942637 19.965458789728  9.1447188833676 19.9654220076272  9.14426655664946 19.9653851965438  C 3.9582060029885 19.5433351606611  0 15.3114229443745  0 10  Z " fill-rule="nonzero" fill="#009dd9" stroke="none" transform="matrix(1 0 0 1 223 538 )" />
      <path d="M 0 10  C 0 5.93330039917385  5.73567038530098 0.923898121163234  5.73567038530098 0.923898121163234  C 7.0234044836005 0.329851249169451  8.46672252600442 0  10 0  C 15.6 0  20 4.39999999999998  20 10  C 20 15.6  15.6 20  10 20  C 9.71188620516443 20  9.42694879650645 19.9883532506822  9.14562356482395 19.9654955428442  C 9.14517121942637 19.965458789728  9.1447188833676 19.9654220076272  9.14426655664946 19.9653851965438  C 3.9582060029885 19.5433351606611  0 15.3114229443745  0 10  Z " stroke-width="2" stroke="#ffffff" fill="none" transform="matrix(1 0 0 1 223 538 )" mask="url(#clip43)" />
    </g>
  </defs>
  <g transform="matrix(1 0 0 1 -219 -534 )">
    <use xlink:href="#widget45" filter="url(#filter44)" />
    <use xlink:href="#widget45" />
  </g>
</svg>