<?xml version="1.0" encoding="utf-8"?>
<svg version="1.1" xmlns:xlink="http://www.w3.org/1999/xlink" width="16px" height="16px" viewBox="396 249  16 16" xmlns="http://www.w3.org/2000/svg">
  <path d="M 404 249  C 408.48 249  412 252.52  412 257  C 412 261.48  408.48 265  404 265  C 399.52 265  396 261.48  396 257  C 396 252.52  399.52 249  404 249  Z " fill-rule="nonzero" fill="#ffffff" stroke="none" />
  <path d="M 404 249.5  C 408.2 249.5  411.5 252.8  411.5 257  C 411.5 261.2  408.2 264.5  404 264.5  C 399.8 264.5  396.5 261.2  396.5 257  C 396.5 252.8  399.8 249.5  404 249.5  Z " stroke-width="1" stroke="#8c8c8c" fill="none" />
  <path d="M 404 261  C 401.76 261  400 259.24  400 257  C 400 254.76  401.76 253  404 253  C 406.24 253  408 254.76  408 257  C 408 259.24  406.24 261  404 261  " fill-rule="nonzero" fill="#8c8c8c" stroke="none" />
</svg>