<?xml version="1.0" encoding="utf-8"?>
<svg version="1.1" xmlns:xlink="http://www.w3.org/1999/xlink" width="2px" height="9px" xmlns="http://www.w3.org/2000/svg">
  <g transform="matrix(1 0 0 1 -359 -642 )">
    <path d="M 0 7.875  C 0 7.245  0.439999999999998 6.75  1 6.75  C 1.56 6.75  2 7.245  2 7.875  C 2 8.505  1.56 9  1 9  C 0.439999999999998 9  0 8.505  0 7.875  Z M 0 4.5  C 0 3.87  0.439999999999998 3.375  1 3.375  C 1.56 3.375  2 3.87  2 4.5  C 2 5.13  1.56 5.625  1 5.625  C 0.439999999999998 5.625  0 5.13  0 4.5  Z M 0 1.125  C 0 0.494999999999997  0.439999999999998 0  1 0  C 1.56 0  2 0.494999999999997  2 1.125  C 2 1.755  1.56 2.25  1 2.25  C 0.439999999999998 2.25  0 1.755  0 1.125  Z " fill-rule="nonzero" fill="#515151" stroke="none" transform="matrix(1 0 0 1 359 642 )" />
  </g>
</svg>