<?xml version="1.0" encoding="utf-8"?>
<svg version="1.1" xmlns:xlink="http://www.w3.org/1999/xlink" width="170px" height="121px" xmlns="http://www.w3.org/2000/svg">
  <defs>
    <mask fill="white" id="clip32">
      <path d="M 379 830  L 379 719  C 379 713.45  383.45 709  389 709  L 539 709  C 544.55 709  549 713.45  549 719  L 549 830  " fill-rule="evenodd" />
    </mask>
  </defs>
  <g transform="matrix(1 0 0 1 -379 -709 )">
    <path d="M 379 709  L 549 709  L 549 830  L 379 830  L 379 709  " fill-rule="nonzero" fill="#cccccc" stroke="none" mask="url(#clip32)" />
    <path d="M 387 717  L 541 717  L 541 822  L 387 822  L 387 717  " fill-rule="nonzero" fill="#ffffff" stroke="none" mask="url(#clip32)" />
    <path d="M 476.475 745.3  C 471.393 745.3  467.4 741.307  467.4 736.225  C 467.4 731.143  471.393 727.15  476.475 727.15  C 481.557 727.15  485.55 731.143  485.55 736.225  C 485.55 741.307  481.557 745.3  476.475 745.3  " fill-rule="nonzero" fill="#cccccc" stroke="none" mask="url(#clip32)" />
    <path d="M 390 819  L 390 764.55  L 427 739.8  L 478.8 776.721176470588  L 508.4 754.65  L 538 776.721176470588  L 538 819  L 390 819  " fill-rule="nonzero" fill="#169bd5" stroke="none" mask="url(#clip32)" />
  </g>
</svg>