<?xml version="1.0" encoding="utf-8"?>
<svg version="1.1" xmlns:xlink="http://www.w3.org/1999/xlink" width="111px" height="70px" xmlns="http://www.w3.org/2000/svg">
  <defs>
    <mask fill="white" id="clip33">
      <path d="M 1011 1460  C 1005.45 1460  1001 1455.55  1001 1450  L 1001 1400  C 1001 1394.45  1005.45 1390  1011 1390  L 1102 1390  C 1107.55 1390  1112 1394.45  1112 1400  L 1112 1450  C 1112 1455.55  1107.55 1460  1102 1460  " fill-rule="evenodd" />
    </mask>
  </defs>
  <g transform="matrix(1 0 0 1 -1001 -1390 )">
    <path d="M 1001 1390  L 1112 1390  L 1112 1460  L 1001 1460  L 1001 1390  " fill-rule="nonzero" fill="#cccccc" stroke="none" mask="url(#clip33)" />
    <path d="M 1006 1395  L 1107 1395  L 1107 1455  L 1006 1455  L 1006 1395  " fill-rule="nonzero" fill="#ffffff" stroke="none" mask="url(#clip33)" />
    <path d="M 1063.97 1411  C 1061.03 1411  1058.72 1408.69  1058.72 1405.75  C 1058.72 1402.81  1061.03 1400.5  1063.97 1400.5  C 1066.91 1400.5  1069.22 1402.81  1069.22 1405.75  C 1069.22 1408.69  1066.91 1411  1063.97 1411  " fill-rule="nonzero" fill="#cccccc" stroke="none" mask="url(#clip33)" />
    <path d="M 1008 1453  L 1008 1422.2  L 1032.25 1408.2  L 1066.2 1431.81081081081  L 1085.6 1416.6  L 1105 1431.81081081081  L 1105 1453  L 1008 1453  " fill-rule="nonzero" fill="#169bd5" stroke="none" mask="url(#clip33)" />
  </g>
</svg>