<?xml version="1.0" encoding="utf-8"?>
<svg version="1.1" xmlns:xlink="http://www.w3.org/1999/xlink" width="50px" height="50px" xmlns="http://www.w3.org/2000/svg">
  <g transform="matrix(1 0 0 1 -225 -790 )">
    <path d="M 225 790  L 275 790  L 275 840  L 225 840  L 225 790  " fill-rule="nonzero" fill="#cccccc" stroke="none" />
    <path d="M 229 794  L 271 794  L 271 836  L 229 836  L 229 794  " fill-rule="nonzero" fill="#ffffff" stroke="none" />
    <path d="M 254.75 805  C 252.65 805  251 803.35  251 801.25  C 251 799.15  252.65 797.5  254.75 797.5  C 256.85 797.5  258.5 799.15  258.5 801.25  C 258.5 803.35  256.85 805  254.75 805  " fill-rule="nonzero" fill="#cccccc" stroke="none" />
    <path d="M 231 835  L 231 813.55  L 240.75 803.8  L 254.4 811.6  L 262.2 809.65  L 270 811.6  L 270 835  L 231 835  " fill-rule="nonzero" fill="#169bd5" stroke="none" />
  </g>
</svg>