<?xml version="1.0" encoding="utf-8"?>
<svg version="1.1" xmlns:xlink="http://www.w3.org/1999/xlink" width="60px" height="60px" xmlns="http://www.w3.org/2000/svg">
  <g transform="matrix(1 0 0 1 -1118 -479 )">
    <path d="M 1118 479  L 1178 479  L 1178 539  L 1118 539  L 1118 479  " fill-rule="nonzero" fill="#cccccc" stroke="none" />
    <path d="M 1122 483  L 1174 483  L 1174 535  L 1122 535  L 1122 483  " fill-rule="nonzero" fill="#ffffff" stroke="none" />
    <path d="M 1153.7 497  C 1151.18 497  1149.2 495.02  1149.2 492.5  C 1149.2 489.98  1151.18 488  1153.7 488  C 1156.22 488  1158.2 489.98  1158.2 492.5  C 1158.2 495.02  1156.22 497  1153.7 497  " fill-rule="nonzero" fill="#cccccc" stroke="none" />
    <path d="M 1124 534  L 1124 507.05  L 1136.25 494.8  L 1153.4 504.6  L 1163.2 502.15  L 1173 504.6  L 1173 534  L 1124 534  " fill-rule="nonzero" fill="#169bd5" stroke="none" />
  </g>
</svg>