<?xml version="1.0" encoding="utf-8"?>
<svg version="1.1" xmlns:xlink="http://www.w3.org/1999/xlink" width="154px" height="154px" xmlns="http://www.w3.org/2000/svg">
  <g transform="matrix(1 0 0 1 -1834 -467 )">
    <path d="M 1834 467  L 1988 467  L 1988 621  L 1834 621  L 1834 467  " fill-rule="nonzero" fill="#cccccc" stroke="none" />
    <path d="M 1845 478  L 1977 478  L 1977 610  L 1845 610  L 1845 478  " fill-rule="nonzero" fill="#ffffff" stroke="none" />
    <path d="M 1925.63 513.2  C 1919.162 513.2  1914.08 508.118  1914.08 501.65  C 1914.08 495.182  1919.162 490.1  1925.63 490.1  C 1932.098 490.1  1937.18 495.182  1937.18 501.65  C 1937.18 508.118  1932.098 513.2  1925.63 513.2  " fill-rule="nonzero" fill="#cccccc" stroke="none" />
    <path d="M 1849 606  L 1849 537.8  L 1880 506.8  L 1923.4 531.6  L 1948.2 525.4  L 1973 531.6  L 1973 606  L 1849 606  " fill-rule="nonzero" fill="#169bd5" stroke="none" />
  </g>
</svg>